<svg width="80" height="80" viewBox="0 0 80 80" fill="none" xmlns="http://www.w3.org/2000/svg">
<g clip-path="url(#clip0_233_237)">
<path d="M46.1088 77.6589C46.1088 78.7421 45.2964 79.6594 44.2193 79.775C42.8331 79.9235 41.4254 79.9999 39.9997 79.9999C38.1465 79.9999 36.3233 79.871 34.5385 79.6217C32.8583 79.387 31.6165 77.9344 31.6165 76.2378C31.6165 66.3884 23.632 58.404 13.7827 58.404H7.50953C5.94865 58.404 4.52909 57.4771 3.92374 56.0383C1.97835 51.4146 0.896035 46.3385 0.878151 41.0118C0.805975 19.4063 18.3945 1.75635 39.9999 1.75635C61.6061 1.75635 79.1215 19.2717 79.1215 40.8781C79.1215 47.8494 77.2981 54.3948 74.1023 60.0634C73.6096 60.937 72.6837 61.4769 71.6809 61.4769H62.291C53.3537 61.4769 46.1088 68.7218 46.1088 77.6589Z" fill="#012D4E"/>
<path d="M74.1715 51.2575V59.9403C68.0773 70.8418 56.9174 78.5271 43.8778 79.8103C41.0999 79.1171 39.0418 76.6054 39.0418 73.6128C39.0418 73.6989 39.04 73.7844 39.0366 73.8697C38.9728 75.4857 36.54 75.4129 36.54 73.7956V51.0745C36.54 49.4573 38.9726 49.3846 39.0366 51.0004C39.04 51.0857 39.0418 51.1713 39.0418 51.2573C39.0418 47.7298 41.9015 44.8701 45.429 44.8701H67.7843C71.3118 44.8703 74.1715 47.73 74.1715 51.2575Z" fill="#0AB59E"/>
<path d="M74.1718 51.2578V59.9406C70.9409 65.72 66.2864 70.5953 60.6831 74.0922H57.7246C50.6695 74.0922 44.9502 68.3729 44.9502 61.3177V57.6451C44.9502 50.5899 50.6695 44.8706 57.7246 44.8706H67.7845C71.312 44.8706 74.1718 47.7303 74.1718 51.2578Z" fill="#0ED1B2"/>
<path d="M65.248 68.7164C64.9692 69.0487 64.6663 69.361 64.3479 69.6446C62.7235 71.0915 60.6289 71.8562 58.2909 71.8562C52.392 71.8562 47.5928 67.057 47.5928 61.1581C47.5928 55.2592 52.392 50.46 58.2909 50.46C60.4346 50.46 62.5034 51.0921 64.2735 52.288C65.0043 52.7817 65.1964 53.7743 64.7027 54.505C64.2091 55.2357 63.2164 55.4279 62.4857 54.9342C61.2456 54.0964 59.7951 53.6534 58.2909 53.6534C54.1529 53.6534 50.7864 57.02 50.7864 61.1579C50.7864 65.2959 54.1529 68.6626 58.2909 68.6626C59.8556 68.6626 61.1787 68.1906 62.2238 67.2598C62.4273 67.0786 62.6216 66.878 62.8012 66.6639C63.3681 65.9884 64.3752 65.9 65.0508 66.4668C65.7264 67.0337 65.8149 68.0408 65.248 68.7164Z" fill="#006E66"/>
<path d="M39.0419 51.2578V73.6131C39.0419 76.4087 37.2459 78.7845 34.7448 79.6503C20.7979 77.7779 9.17918 68.5567 3.91211 56.0106V51.2578C3.91211 47.7303 6.77183 44.8706 10.2993 44.8706H32.6546C36.1821 44.8706 39.0419 47.7303 39.0419 51.2578Z" fill="#E43950"/>
<path d="M39.0419 51.2578V61.3177C39.0419 68.3729 33.3226 74.0922 26.2674 74.0922H22.5948C20.985 74.0922 19.4449 73.7944 18.0263 73.251C15.6657 71.6455 13.4901 69.7888 11.5375 67.719C10.4456 65.8368 9.82031 63.6503 9.82031 61.3177V57.6451C9.82031 50.5899 15.5396 44.8706 22.5948 44.8706H32.6546C36.1821 44.8706 39.0419 47.7303 39.0419 51.2578Z" fill="#FD4343"/>
<path d="M25.6879 59.9031C26.5042 58.9056 26.9944 57.6315 26.9944 56.2452C26.9944 53.0553 24.3993 50.46 21.2093 50.46H15.922C15.0401 50.46 14.3252 51.1749 14.3252 52.0568V70.2592C14.3252 70.3073 14.3274 70.355 14.3317 70.4023C14.9077 70.9034 15.4984 71.388 16.1031 71.8552C16.9844 71.8514 20.9531 71.8343 22.1328 71.8343C25.7149 71.8343 28.6291 68.9202 28.6291 65.338C28.6291 63.0672 27.458 61.0648 25.6879 59.9031ZM17.5188 53.6536H21.2093C22.6383 53.6536 23.8008 54.8162 23.8008 56.2452C23.8008 57.6742 22.6382 58.8368 21.2093 58.8368C20.8221 58.8368 20.09 58.8389 19.2909 58.8418H17.5188V53.6536ZM22.1328 68.6407C21.2953 68.6407 19.0669 68.6492 17.5188 68.6556V62.0421C18.0727 62.0398 18.7044 62.0374 19.2988 62.0354H22.1328C23.9539 62.0354 25.4355 63.517 25.4355 65.3382C25.4355 67.1594 23.9539 68.6407 22.1328 68.6407Z" fill="#962437"/>
<path d="M61.4519 34.152L39.8583 39.938C36.4509 40.8511 32.9486 38.8289 32.0355 35.4216L26.2495 13.828C25.3365 10.4206 27.3587 6.91832 30.7659 6.00527L52.3595 0.219239C55.767 -0.693815 59.2692 1.32838 60.1823 4.73565L65.9683 26.3293C66.8814 29.7365 64.8592 33.239 61.4519 34.152Z" fill="#F5C02C"/>
<path d="M53.7539 30.0984L50.2064 31.0489C43.3917 32.8749 36.387 28.8308 34.5609 22.016L33.6103 18.4685C31.7844 11.6538 35.8284 4.6491 42.6433 2.82299L52.3603 0.219239C55.7677 -0.693815 59.27 1.32838 60.1831 4.73565L62.7868 14.4527C64.6128 21.2677 60.5687 28.2724 53.7539 30.0984Z" fill="#FDED32"/>
<path d="M56.5119 25.7674L45.3248 10.1851C45.3157 10.1723 45.3064 10.1599 45.297 10.1474C44.8004 9.49654 43.9683 9.21343 43.1779 9.42628C42.3873 9.63898 41.8098 10.3012 41.7064 11.1131C41.7049 11.1261 41.7033 11.139 41.702 11.1519L39.7448 30.2555C39.6549 31.1328 40.2933 31.9168 41.1706 32.0067C41.226 32.0125 41.2807 32.0152 41.3352 32.0152C42.1438 32.0152 42.8375 31.403 42.9218 30.5809L43.297 26.918L51.7756 24.6462L53.9177 27.63C54.432 28.3464 55.4297 28.5102 56.1462 27.996C56.8625 27.4814 57.0262 26.4837 56.5119 25.7674ZM43.6454 23.5183L44.5598 14.595L49.785 21.8732L43.6454 23.5183Z" fill="#C98001"/>
</g>
<defs>
<clipPath id="clip0_233_237">
<rect width="80" height="80" fill="white"/>
</clipPath>
</defs>
</svg>
