<svg width="25" height="25" viewBox="0 0 25 25" fill="none" xmlns="http://www.w3.org/2000/svg">
<path d="M24.3926 11.0268L22.6875 9.32203C22.2828 8.91736 21.9512 8.11767 21.9512 7.54417V5.13323C21.9512 3.98636 21.0143 3.04945 19.8677 3.04884H17.4558C16.883 3.04884 16.0824 2.71662 15.6777 2.31225L13.9729 0.60751C13.1629 -0.202503 11.8366 -0.202503 11.0266 0.60751L9.32188 2.31348C8.91685 2.71815 8.11532 3.04945 7.54371 3.04945H5.13278C3.98743 3.04945 3.0493 3.98636 3.0493 5.13323V7.54423C3.0493 8.11547 2.71775 8.91767 2.31302 9.3221L0.607968 11.0268C-0.202656 11.8369 -0.202656 13.1631 0.607968 13.9744L2.31302 15.6792C2.71799 16.0838 3.0493 16.8857 3.0493 17.457V19.868C3.0493 21.0137 3.98743 21.9518 5.13278 21.9518H7.54377C8.1166 21.9518 8.91721 22.2833 9.32194 22.6878L11.0267 24.3931C11.8367 25.2025 13.163 25.2025 13.973 24.3931L15.6777 22.6878C16.0828 22.2831 16.8831 21.9518 17.4559 21.9518H19.8678C21.0144 21.9518 21.9513 21.0137 21.9513 19.868V17.457C21.9513 16.8833 22.2831 16.0836 22.6876 15.6792L24.3926 13.9744C25.202 13.1631 25.202 11.8368 24.3926 11.0268ZM10.846 17.1878L6.24937 12.5906L7.72255 11.1177L10.8464 14.2416L17.2768 7.81267L18.7496 9.28553L10.846 17.1878Z" fill="white"/>
</svg>
