<svg width="248" height="326" viewBox="0 0 248 326" fill="none" xmlns="http://www.w3.org/2000/svg">
<g id="Frame" clip-path="url(#clip0_189_11174)">
<g id="Group">
<g id="Group_2">
<path id="Vector" d="M138.774 252.262C151.636 266.316 183.159 279.537 227.103 239.636C235.71 239.636 227.687 272.882 187.84 279.855C212.094 284.542 239.789 255.491 247 261.732C252.157 266.728 238.095 299.218 186.942 291.664C198.23 297.265 220.575 290.355 223.947 299.083C209.117 318.29 143.421 307.695 116.895 253.141" fill="#93C73E"/>
<path id="Vector_2" d="M137.654 246.123C147.526 257.204 167.322 261.223 179.934 259.213C175.524 264.771 157.817 267.66 148.153 265.133C160.808 277.833 176.964 284.624 176.964 284.624C166.508 287.508 147.058 282.878 135.506 270.445C146.292 284.653 160.502 294.641 163.661 296.105C142.333 295.841 121.3 279.378 117.467 259.769" fill="#55962A"/>
<path id="Vector_3" d="M135.505 254.098C145.796 259.177 161.872 261.882 161.872 261.882C141.836 263.133 128.695 257.666 128.695 257.666" fill="#467E33"/>
<path id="Vector_4" d="M134.56 255.491C138.867 263.625 151.286 275.401 157.817 278.528C143.32 273.754 127.32 256.999 127.653 256.113C127.987 255.227 130.818 277.786 145.462 287.672C130.458 278.695 122.986 265.304 123.055 256.113" fill="#467E33"/>
<path id="Vector_5" d="M171.521 268.135C187.198 264.059 202.547 253.917 203.987 254.889C205.428 255.855 206.645 256.193 206.645 256.193C206.645 256.193 206.097 253.498 206.955 252.555C213.328 245.347 225.883 238.133 227.732 239.881C230.233 246.299 217.282 263.945 204.914 269.714C202.688 269.552 197.246 267.659 197.246 267.659L199.647 272.516C193.04 277.458 179.344 276.053 175.185 272.516C192.544 267.328 210.702 259.352 220.251 250.226C198.482 262.884 184.971 267.66 171.521 268.135Z" fill="#B4DD43"/>
<path id="Vector_6" d="M190.444 281.66C202.502 280.548 240.11 256.069 247 261.732C247.954 272.211 229.958 285.549 216.231 287.588C214.19 287.402 210.109 284.542 210.109 284.542L211.593 289.069C201.947 291.662 182.096 289.282 169.852 279.357C191.185 287.216 216.045 285.34 239.049 268.585C222.167 277.027 203.968 281.751 190.444 281.66Z" fill="#B4DD43"/>
<path id="Vector_7" d="M171.522 288.822C182.899 290.054 218.872 291.322 223.519 298.223C221.98 303.15 199.967 305.573 193.535 304.115C191.805 302.41 189.587 298.555 189.587 298.555L189.561 303.128C180.673 303.151 163.603 295.492 155.936 285.612C171.768 296.727 195.759 299.388 213.075 298.555C194.03 296.232 171.522 288.822 171.522 288.822Z" fill="#B4DD43"/>
</g>
<g id="Group_3">
<path id="Vector_8" d="M43.0886 248.746C57.2052 264.354 77.8676 268.651 79.4529 263.562C80.5573 260.05 59.7939 252.929 50.516 234.932C46.5096 228.725 37.0021 233.476 38.5151 241.139C40.027 248.798 43.0886 248.746 43.0886 248.746Z" fill="#490D6D"/>
<path id="Vector_9" d="M34.9511 244.965C37.8291 267.57 52.3234 274.464 49.0712 278.412C45.8212 282.363 19.7451 263.799 16.8809 241.191" fill="#490D6D"/>
<path id="Vector_10" d="M25.8256 244.094C31.6722 266.954 68.451 287.958 81.4862 276.611C69.9697 271.438 52.5515 261.897 45.2527 240.97C39.0089 229.674 24.4021 238.556 25.8256 244.094Z" fill="#490D6D"/>
<path id="Vector_11" d="M5.98522 210.321C-1.33999 254.188 31.6539 274.394 25.7717 255.794C39.6047 273.849 43.4803 258.816 34.952 244.965C49.5519 259.566 64.58 250.859 47.1067 236.724C58.7885 245.469 65.8176 238.333 52.3013 226.832C46.0368 213.464 45.9014 198.556 25.4502 193.496C4.98763 188.433 5.98522 210.321 5.98522 210.321Z" fill="#467E33"/>
<path id="Vector_12" d="M6.375 226.535C6.73432 244.525 17.6653 260.424 25.3533 260.511C25.5967 253.807 15.7735 244.265 13.3202 225.929C11.9783 226.273 10.7924 235.597 15.6598 247.156C10.2127 238.831 9.64672 225.547 6.375 226.535Z" fill="#55962A"/>
<path id="Vector_13" d="M18.8066 231.591C18.8904 244.519 29.911 267.122 40.3174 265.524C44.4822 257.592 31.928 241.283 29.6883 228.205C29.3175 232.358 24.4329 233.352 24.4329 233.352C24.2882 238.748 34.822 258.374 34.822 258.374C25.7289 250.917 22.285 233.808 22.285 233.808C20.2118 233.009 18.8066 231.591 18.8066 231.591Z" fill="#55962A"/>
<path id="Vector_14" d="M33.7109 236.246C37.1858 247.017 52.9027 254.205 54.9461 248.5C56.9838 242.788 45.7141 238.278 44.2872 234.249C44.4353 237.019 42.7191 237.781 42.7191 237.781C45.2526 240.97 51.4379 246.708 51.4379 246.708C46.0379 245.685 40.3244 238.307 40.3244 238.307C37.1721 237.525 33.7109 236.246 33.7109 236.246Z" fill="#67AB3C"/>
<path id="Vector_15" d="M45.9004 231.519C47.2952 237.76 59.1847 241.465 59.466 237.697C59.7496 233.931 52.468 230.277 49.2043 226.789C48.3203 228.059 48.3261 229.597 48.3261 229.597C49.5119 232.13 55.3723 236.116 55.3723 236.116C51.4887 235.672 45.9004 231.519 45.9004 231.519Z" fill="#67AB3C"/>
<path id="Vector_16" d="M57.5437 247.076C66.0778 254.357 79.8833 261.535 79.4516 263.561C79.0292 265.59 66.2534 262.044 54.6152 253.363C57.7067 252.155 57.5437 247.076 57.5437 247.076Z" fill="#622987"/>
<path id="Vector_17" d="M55.7356 261.094C61.6374 269.205 79.1922 276.674 84.2788 275.769C82.9254 282.304 53.1986 276.446 42.0449 256.829C45.0274 258.482 47.4863 258.528 47.4863 258.528C49.5997 263.602 60.9279 269.398 60.9279 269.398C57.5437 266.491 55.7356 261.094 55.7356 261.094Z" fill="#622987"/>
<path id="Vector_18" d="M41.7295 266.728C46.5269 272.732 50.9879 277.566 49.072 278.412C47.164 279.251 38.506 273.412 33.2793 265.761C38.0273 269.651 41.7295 266.728 41.7295 266.728Z" fill="#622987"/>
<path id="Vector_19" d="M33.4153 156.129C50.6418 158.204 64.5184 189.512 59.6568 215.062C55.5459 236.684 47.4033 226.537 45.1143 212.798C47.5985 248.318 24.9536 235.488 21.551 214.584C24.9536 235.487 8.61448 230.865 10.1332 213.964C8.86588 231.643 -3.50582 221.073 1.59692 193.02C6.41037 166.544 18.9129 154.379 33.4153 156.129Z" fill="#93C73E"/>
<path id="Vector_20" d="M31.6458 157.52C49.0239 155.146 61.8904 185.761 60.7493 205.824C59.6541 225.164 52.2623 216.955 46.5132 199.742C48.2237 212.608 45.7108 224.835 41.9535 226.248C37.7244 227.837 31.1844 218.24 27.2365 200.519C27.8713 210.184 29.7701 222.74 24.75 223.011C19.723 223.289 22.764 200.501 22.764 200.501C21.5494 211.809 15.8428 220.094 13.3873 216.884C3.66859 204.184 11.3703 160.289 31.6458 157.52Z" fill="#87B234"/>
<path id="Vector_21" d="M34.4693 158.921C46.7917 160.155 66.1557 190.268 45.6758 189.885C25.196 189.509 19.9555 157.449 34.4693 158.921Z" fill="#C6E545"/>
<path id="Vector_22" d="M39.3517 191.753C46.1902 192.494 47.7698 209.59 40.7316 209.04C33.7025 208.491 25.2145 190.219 39.3517 191.753Z" fill="#C6E545"/>
<path id="Vector_23" d="M52.1429 185.721C55.9921 187.898 62.3083 202.574 55.355 203.738C48.412 204.89 41.9053 184.635 51.1637 185.413" fill="#C6E545"/>
<path id="Vector_24" d="M24.195 169.559C27.6677 169.524 28.3254 179.607 24.4384 179.558C20.5364 179.515 20.7213 169.587 24.195 169.559Z" fill="#C6E545"/>
<path id="Vector_25" d="M26.5304 186.442C28.7885 187.325 30.6849 194.397 26.6991 193.977C22.7295 193.56 22.9912 185.049 26.5304 186.442Z" fill="#C6E545"/>
</g>
<path id="Vector_26" opacity="0.2" d="M155.48 305.418C128.817 289.259 -16.0067 290.929 22.1266 317.353C44.1367 332.608 191.244 327.095 155.48 305.418Z" fill="url(#paint0_linear_189_11174)"/>
<g id="Group_4">
<g id="Group_5">
<path id="Vector_27" d="M71.2996 247.837C75.5815 250.468 66.9545 289.87 61.4132 291.178C55.8708 292.482 39.945 288.607 38.1599 301.09C38.3252 302.901 39.4009 304.172 40.6935 304.322C40.1539 304.446 35.0351 307.822 38.2471 312.211C41.0069 315.98 55.1315 304.806 68.7993 301.274C75.0638 299.659 84.406 307.507 87.0612 303.92C92.0756 297.146 77.4757 294.373 74.1741 292.248C70.2549 289.741 82.7139 248.908 86.6089 242.684" fill="#EA8B00"/>
<path id="Vector_28" d="M40.0896 309.081C41.3098 311.528 49.2148 305.399 56.02 301.621C62.8171 297.846 68.9657 295.027 75.1372 297.783C81.3087 300.543 85.4333 304.43 86.4217 300.638C87.6214 296.056 77.5054 294.281 72.9307 293.244C68.3572 292.208 73.9662 266.103 77.766 256.113C75.7548 257.26 71.8987 258.183 71.8987 258.183C69.4983 267.851 67.5915 292.757 59.2136 292.683C50.8426 292.601 43.9146 292.197 40.8587 295.636C37.8097 299.075 40.6647 302.114 43.2419 299.764C45.8076 297.414 51.7954 297.38 54.3462 297.42C46.152 300.239 40.2353 302.89 39.7107 305.119" fill="#FCA615"/>
<path id="Vector_29" d="M36.0895 310.873C37.0067 312.697 42.5974 309.985 43.0267 307.885C43.4583 305.79 41.9602 303.884 40.1568 303.92C38.351 303.954 35.0873 308.864 36.0895 310.873Z" fill="#D3BB9F"/>
<path id="Vector_30" d="M37.6045 301.726C38.5148 303.55 43.2743 300.915 43.7037 298.814C44.1353 296.724 43.4775 294.738 41.6752 294.767C39.8671 294.805 36.5977 299.712 37.6045 301.726Z" fill="#D3BB9F"/>
<path id="Vector_31" d="M36.2414 309.745C36.7143 311.33 41.1111 308.735 40.5635 305.641C40.009 302.549 35.5457 307.449 36.2414 309.745Z" fill="#EEDACF"/>
<path id="Vector_32" d="M88.7453 301.668C88.3688 303.758 82.3546 303.464 81.3983 301.657C80.4237 299.85 81.3283 297.447 83.0388 296.741C84.7573 296.05 89.1482 299.361 88.7453 301.668Z" fill="#D3BB9F"/>
<path id="Vector_33" d="M88.3032 300.655C88.2722 302.354 83.4198 301.68 83.1099 298.537C82.8045 295.396 88.3354 298.218 88.3032 300.655Z" fill="#EEDACF"/>
<path id="Vector_34" d="M37.5077 300.036C37.9622 301.634 42.8204 299.89 42.2706 296.8C41.7172 293.707 37.1369 298.738 37.5077 300.036Z" fill="#EEDACF"/>
</g>
<path id="Vector_35" d="M84.1021 266.227C84.0562 270.161 76.925 279.842 70.9647 278.88C65.7587 278.046 62.6477 271.266 61.6914 261.882" fill="#67AB3C"/>
<path id="Vector_36" d="M63.6079 262.958C61.8573 267.675 64.1957 277.061 69.4029 278.379C74.6146 279.702 78.2617 271.946 77.705 268.197C77.1528 264.446 64.4218 260.771 63.6079 262.958Z" fill="#93C73E"/>
</g>
<path id="Vector_37" d="M95.3123 133.888C93.9531 147.402 129.731 172.282 140.43 221.022C150.013 264.708 113.335 284.971 65.7899 273.1C16.9057 260.897 9.61841 193.42 24.588 162" fill="#93C73E"/>
<path id="Vector_38" d="M26.4002 131.905C31.7452 139.169 23.6347 158.474 21.7452 166.939C18.9189 179.607 47.0741 301.089 95.522 242.684C109.16 226.242 120.558 174.172 123.056 161.608C121.347 155.642 99.5594 143.47 100.114 103.877" fill="#93C73E"/>
<g id="Group_6">
<path id="Vector_39" d="M63.9345 172.606C71.6684 195.707 95.2431 252.65 78.9385 266.375C65.5083 273.258 43.1917 266.635 27.7354 244.884C12.2791 223.136 14.1698 186.583 20.0853 167.794C29.1991 138.867 51.0439 134.101 63.9345 172.606Z" fill="#B3D334"/>
<path id="Vector_40" d="M20.6389 191.383C20.6389 191.383 13.192 232.55 40.0523 256.842C56.1423 271.394 70.2072 267.475 74.7899 259.014C83.6362 242.684 64.0931 201.22 56.2697 182.989C42.9268 160.111 26.1986 163.76 20.6389 191.383Z" fill="#C6E545"/>
<path id="Vector_41" d="M48.4441 223.923C57.1572 227.869 79.9387 263.374 54.7281 258.142C29.5186 252.915 22.043 229.786 24.5409 223.894C27.0401 218.003 36.0643 218.31 48.4441 223.923Z" fill="#DBF253"/>
<path id="Vector_42" d="M66.0044 224.847C71.9532 228.463 69.5241 243.159 63.0679 237.388C56.6094 231.62 56.5956 219.112 66.0044 224.847Z" fill="#DBF253"/>
<path id="Vector_43" d="M28.2056 210.671C34.3243 212.115 39.6348 219.58 31.2431 219.65C22.8606 219.73 22.0754 209.22 28.2056 210.671Z" fill="#DBF253"/>
<path id="Vector_44" d="M49.601 216.574C54.4615 218.287 53.1287 223.92 48.4438 223.923C43.7716 223.927 44.737 214.848 49.601 216.574Z" fill="#DBF253"/>
</g>
<path id="Vector_45" d="M77.7629 169.383C72.899 202.269 89.2932 231.476 99.0073 234.521C106.088 245.932 116.831 256.515 121.451 253.423C123.981 260.06 142.46 262.27 141.962 247.448" fill="#467E33"/>
<g id="Group_7">
<g id="Group_8">
<path id="Vector_46" d="M119.616 310.575C120.601 313.675 122.851 323.184 113.123 322.573C106.248 322.144 110.715 312.58 105.445 310.765C100.173 308.939 87.2159 314.248 84.9199 311.566C84.9635 302.182 101.676 305.365 103.603 300.369C104.666 292.538 103.54 281.409 101.432 271.062C103.595 270.212 105.647 268.967 107.507 267.421C109.933 283.496 114.07 299.259 117.902 300.595C122.028 302.182 137.631 307.664 132.66 315.203C127.69 322.739 120.718 310.662 119.616 310.575Z" fill="#EA8B00"/>
<path id="Vector_47" d="M116.568 300.368C112.811 298.866 110.802 282.412 108.011 267.006C106.616 268.225 105.107 269.271 103.518 270.11C106.671 282.254 108.243 295.26 107.243 301.501C105.167 303.615 94.5005 303.788 89.6193 305.42C84.7347 307.056 87.9375 309.919 89.2026 310.261C93.3502 307.36 107.171 305.513 109.583 308.518C112.568 312.241 109.182 321.302 115.916 320.201C123.887 318.899 115.988 307.649 119.018 308.218C123.633 309.083 127.688 316.021 130.5 313.544C133.311 311.064 134.041 307.365 116.568 300.368Z" fill="#FFAF3B"/>
<path id="Vector_48" d="M89.4947 306.236C91.0157 306.849 91.9881 309.009 91.181 310.129C90.3786 311.249 84.4126 312.118 84.2244 311.243C83.8191 309.368 87.4834 305.437 89.4947 306.236Z" fill="#D3BB9F"/>
<path id="Vector_49" d="M87.3041 306.67C84.2252 308.17 84.2666 311.881 87.8896 310.098C91.5103 308.32 90.0432 305.336 87.3041 306.67Z" fill="#EEDACF"/>
<path id="Vector_50" d="M118.193 317.41C116.614 316.399 113.425 317.268 112.824 318.707C111.963 320.764 114.934 325.497 115.987 324.984C118.242 323.883 120.756 319.042 118.193 317.41Z" fill="#D3BB9F"/>
<path id="Vector_51" d="M118.883 319.616C118.57 323.144 115.118 324.545 114.303 320.675C113.488 316.802 119.152 316.588 118.883 319.616Z" fill="#EEDACF"/>
<path id="Vector_52" d="M131.158 310.81C129.47 310.66 127.21 312.055 127.138 313.34C127.065 314.637 131.503 317.974 132.245 317.323C133.838 315.927 133.393 311.013 131.158 310.81Z" fill="#D3BB9F"/>
<path id="Vector_53" d="M132.953 312.72C133.658 315.612 131.391 317.175 129.648 314.271C127.901 311.362 132.347 310.242 132.953 312.72Z" fill="#EEDACF"/>
</g>
<path id="Vector_54" d="M119.113 264.763C120.683 269.334 115.461 283.918 107.33 285.654C100.24 287.165 93.3973 280.814 88.2578 270.422" fill="#93C73E"/>
<path id="Vector_55" d="M92.4922 268.641C92.1823 274.932 99.2779 284.007 105.13 282.895C110.215 281.931 111.53 270.636 109.255 266.565C106.978 262.493 92.6369 265.716 92.4922 268.641Z" fill="#B3D334"/>
</g>
<g id="Group_9">
<path id="Vector_56" d="M62.5201 34.9004C70.8303 34.4533 98.532 13.7284 82.7727 0C103.284 4.70375 97.7583 33.0547 89.6479 37.8605C100.644 37.9132 103.972 25.6993 101.488 20.3111C116.352 30.1233 106.474 45.5495 98.5229 48.5898C105.003 46.6546 114.402 53.4621 114.132 62.6403C111.293 58.8972 102.129 61.8504 102.129 61.8504C109.975 87.5932 98.2887 111.884 102.891 127.541C108.137 145.384 34.2628 159.414 24.1836 125.062" fill="#93C73E"/>
<path id="Vector_57" d="M100.304 96.3761C111.087 68.6603 87.0781 28.4302 48.7863 31.8809C9.0538 35.4612 6.85658 76.7013 3.43677 89.1216C-7.94653 107.622 11.0341 125.887 29.8838 125.426C54.0096 124.834 89.4084 124.373 100.304 96.3761Z" fill="#93C73E"/>
<path id="Vector_58" d="M52.6711 32.5971C79.7678 33.9717 91.4898 62.8912 90.2144 78.4802C91.7848 83.5015 97.3157 110.692 72.2199 117.651C45.9439 124.933 26.4548 122.896 9.80806 113.28C-4.89747 104.784 2.36116 94.4372 4.8339 88.5744C10.219 52.3189 24.0578 31.1331 52.6711 32.5971Z" fill="#B3D334"/>
<path id="Vector_59" d="M44.9388 35.5343C77.6802 36.8251 77.9442 83.5142 38.9212 85.5708C2.86448 87.4727 10.0531 34.1643 44.9388 35.5343Z" fill="#C6E545"/>
<path id="Vector_60" d="M10.433 61.2508C13.5784 56.9815 26.6228 60.3726 24.1203 84.0862C19.8624 102.662 5.05013 96.7679 3.66797 88.2271C4.56913 73.3993 8.37466 65.8788 10.433 61.2508Z" fill="#F2FBFF"/>
<path id="Vector_61" d="M46.7998 84.9542C45.3327 67.0597 59.5687 55.4041 73.7978 62.0235C92.6705 70.8074 87.5758 116.453 54.9791 100.708" fill="#F2FBFF"/>
<g id="Group_10">
<path id="Vector_62" d="M69.9 64.5651C84.9672 67.7247 86.4366 98.5862 66.3264 97.4788C44.6378 96.2899 51.4464 60.7258 69.9 64.5651Z" fill="#859E5A"/>
<path id="Vector_63" d="M71.013 69.7173C83.1068 72.2463 85.451 98.1989 68.1407 96.1342C50.8351 94.0832 56.2007 66.6277 71.013 69.7173Z" fill="#0D192D"/>
<path id="Vector_64" d="M53.9195 72.5271C57.81 67.9678 62.6739 78.3911 61.2504 80.3491C59.8304 82.3141 50.3194 76.7024 53.9195 72.5271Z" fill="#F2FBFF"/>
<path id="Vector_65" d="M74.6659 83.9476C76.6082 83.9074 77.2201 87.9451 74.5821 87.5748C71.9463 87.1839 72.4859 83.9923 74.6659 83.9476Z" fill="#E3DBE6"/>
</g>
<g id="Group_11">
<path id="Vector_66" d="M18.0131 67.4496C27.1498 70.3695 25.2223 92.7958 14.1054 90.7104C0.951884 88.2651 6.82721 63.898 18.0131 67.4496Z" fill="#859E5A"/>
<path id="Vector_67" d="M19.1808 69.6562C26.7585 72.0488 25.1548 90.6644 15.9228 88.9356C5.02053 86.8961 9.90401 66.7054 19.1808 69.6562Z" fill="#0D192D"/>
<path id="Vector_68" d="M8.24016 70.1565C10.9907 67.6034 13.8606 75.7969 12.8401 77.0534C11.8172 78.2938 5.58719 72.6202 8.24016 70.1565Z" fill="#F2FBFF"/>
<path id="Vector_69" d="M18.817 80.3149C20.0832 80.4697 20.26 83.3472 18.5736 82.8473C16.8781 82.3349 17.397 80.151 18.817 80.3149Z" fill="#E3DBE6"/>
</g>
<g id="Group_12">
<path id="Vector_70" d="M27.354 120.427C27.354 120.427 34.9662 133.228 42.079 132.235C53.514 130.641 63.2913 112.127 59.7636 100.221C55.9087 87.2492 41.3834 76.6574 31.0757 77.1378C12.3351 78.0263 2.72309 108.198 20.7853 128.981C23.9135 126.618 27.354 120.427 27.354 120.427Z" fill="#EF9F14"/>
<path id="Vector_71" d="M48.6756 116.068C48.4379 121.698 45.4176 125.808 41.4261 127.469C38.1303 128.833 33.582 125.337 33.582 125.337C38.7008 125.74 45.0985 122.753 48.6756 116.068Z" fill="#FDC60A"/>
<path id="Vector_72" d="M53.3639 99.2659C57.8135 99.4734 55.9205 105.938 49.6456 111.141C43.3846 116.343 33.6969 114.612 23.6211 121.661C28.7433 114.769 43.8105 115.826 49.3035 109.767C55.4429 102.977 50.5927 99.1456 53.3639 99.2659Z" fill="#541334"/>
<path id="Vector_73" d="M48.7912 110.197C45.4346 120.485 39.1643 124.084 35.1591 124.411C31.5475 124.702 29.5156 118.84 29.5156 118.84C33.3671 115.489 48.7912 110.197 48.7912 110.197Z" fill="#541334"/>
<path id="Vector_74" d="M44.6399 109.694C40.8826 109.294 31.3521 113.963 39.1354 121.232C43.9328 119.277 49.4488 109.816 44.6399 109.694Z" fill="#DB3A5D"/>
<path id="Vector_75" d="M51.5699 97.0318C53.7901 103.289 52.1175 111.411 41.059 114.372C30.0029 117.329 29.5862 132.395 29.957 135.362C26.6531 137.535 15.5821 128.1 12.7592 120.751C9.24298 111.628 8.49565 86.2635 22.7684 80.2712C37.0388 74.2811 49.4921 91.1851 51.5699 97.0318Z" fill="#EF9F14"/>
</g>
<path id="Vector_76" d="M85.8626 3.63184C100.793 4.64298 98.3583 34.2699 74.7227 30.0889C82.4657 27.7387 90.156 10.766 85.8626 3.63184Z" fill="#C6E545"/>
<path id="Vector_77" d="M102.822 23.9888C108.91 26.3057 107.321 49.2581 91.4102 39.6557C102.626 36.3701 102.822 23.9888 102.822 23.9888Z" fill="#C6E545"/>
<path id="Vector_78" d="M98.2891 50.6327C106.164 47.7162 111.405 48.1094 112.721 59.224C108.431 52.1334 100.049 56.4898 98.2891 50.6327Z" fill="#C6E545"/>
<path id="Vector_79" d="M31.9564 77.8947C43.0963 77.2275 51.1929 91.4225 49.3722 102.153C48.0039 110.158 41.201 111.325 35.0524 113.405C28.3104 115.692 28.8695 129.15 24.8607 130.723C21.0345 132.228 14.0916 120.41 12.8977 115.274C10.4674 104.83 9.84754 79.2223 31.9564 77.8947Z" fill="#FDC60A"/>
<path id="Vector_80" d="M42.4064 94.2664C44.397 95.14 48.5711 98.969 45.3361 100.504C42.0781 102.056 40.9967 93.6485 42.4064 94.2664Z" fill="#EF9F14"/>
<path id="Vector_81" d="M19.5063 88.7727C23.4278 89.6956 18.7877 104.487 15.6939 104.872C10.9482 105.473 10.5258 86.6553 19.5063 88.7727Z" fill="#FFF148"/>
</g>
<g id="Group_13">
<path id="Vector_82" d="M148.428 229.154C169.551 236.09 190.746 229.235 189.537 223.741C188.705 219.943 165.938 224.262 147.999 212.61C141.08 209.006 134.848 218.331 140.251 224.569C145.648 230.802 148.428 229.154 148.428 229.154Z" fill="#490D6D"/>
<path id="Vector_83" d="M138.991 229.936C153.464 249.166 170.369 247.91 169.457 253.228C168.546 258.548 134.91 255.153 120.439 235.919" fill="#490D6D"/>
<path id="Vector_84" d="M130.157 233.907C147.502 251.814 192.226 251.854 198.23 234.642C184.971 235.914 163.996 236.267 146.338 220.892C134.699 213.8 125.96 229.574 130.157 233.907Z" fill="#490D6D"/>
<path id="Vector_85" d="M94.2783 213.308C110.539 257.355 151.38 258.644 136.24 244.664C158.386 253.991 154.064 238.18 138.991 229.936C160.027 235.697 169.241 219.863 145.812 216.032C161.105 217.946 163.816 207.73 145.395 204.247C132.647 195.262 124.721 181.666 103.309 187.712C81.8951 193.76 94.2783 213.308 94.2783 213.308Z" fill="#55962A"/>
<path id="Vector_86" d="M103.127 227.97C112.884 244.279 131.233 253.143 138.332 249.21C135.044 242.927 121.032 239.315 109.183 223.782C108.133 224.801 111.931 233.972 122.453 242.025C113.09 237.237 105.611 225.354 103.127 227.97Z" fill="#67AB3C"/>
<path id="Vector_87" d="M117.178 226.115C124.024 237.925 145.97 252.886 154.673 245.987C154.34 236.536 134.286 228.141 125.385 217.321C127.22 221.324 123.26 224.783 123.26 224.783C125.953 229.808 145.892 242.303 145.892 242.303C133.651 240.213 121.525 226.324 121.525 226.324C119.213 226.677 117.178 226.115 117.178 226.115Z" fill="#67AB3C"/>
<path id="Vector_88" d="M133.285 222.589C142.118 230.654 160.292 229.027 159.173 222.731C158.048 216.427 145.351 218.183 141.932 215.231C143.517 217.697 142.344 219.295 142.344 219.295C146.339 220.893 155.016 222.922 155.016 222.922C149.535 224.807 140.43 221.024 140.43 221.024C137.126 221.958 133.285 222.589 133.285 222.589Z" fill="#67AB3C"/>
<path id="Vector_89" d="M141.979 211.889C146.529 216.88 159.37 214.066 157.66 210.465C155.949 206.864 147.352 207.316 142.534 205.822C142.386 207.449 143.201 208.861 143.201 208.861C145.612 210.562 153.071 211.154 153.071 211.154C149.285 212.775 141.979 211.889 141.979 211.889Z" fill="#67AB3C"/>
<path id="Vector_90" d="M160.809 220.068C172.447 222.285 188.867 221.657 189.537 223.742C190.207 225.821 176.64 229.245 161.417 227.366C163.62 224.644 160.809 220.068 160.809 220.068Z" fill="#622987"/>
<path id="Vector_91" d="M166.496 233.873C176.158 238.225 196.168 235.9 200.356 232.409C202.538 239.113 172.21 249.271 151.707 237.11C155.307 237.067 157.582 235.825 157.582 235.825C162.182 239.374 175.607 238.767 175.607 238.767C170.984 237.87 166.496 233.873 166.496 233.873Z" fill="#622987"/>
<path id="Vector_92" d="M156.606 246.355C164.146 249.348 170.766 251.45 169.457 253.228C168.149 254.993 157.148 254.165 148.354 249.881C154.749 250.964 156.606 246.355 156.606 246.355Z" fill="#622987"/>
<path id="Vector_93" d="M91.5844 147.467C108.465 140.372 137.051 163.643 145.979 189.611C153.53 211.582 140.75 206.534 131.451 195.14C152.339 226.404 130.077 224.23 116.006 206.834C129.526 227.558 115.062 228.8 107.594 212.514C107.513 232.374 91.7531 229.669 81.1883 199.737C71.7325 172.945 77.3702 153.439 91.5844 147.467Z" fill="#93C73E"/>
<path id="Vector_94" d="M89.1296 146.176C109.516 135.68 132.673 161.579 142.141 180.569C151.269 198.875 140.184 195.21 125.899 182.433C134.206 193.334 138.308 205.857 135.601 209.117C132.557 212.782 121.53 207.398 108.631 193.213C114.269 201.743 122.598 212.263 118.131 215.138C113.666 218.021 104.522 195.54 104.522 195.54C105.571 206.126 106.997 211.386 102.953 212.735C94.742 215.491 77.0426 191.905 79.4613 166.634C82.2842 178.316 92.0489 187.805 92.0489 187.805C83.3277 173.725 79.4212 151.175 89.1296 146.176Z" fill="#B3D334"/>
<path id="Vector_95" d="M96.5442 146.994C109.102 143.372 139.925 165.278 119.706 172.943C99.4865 180.607 81.7423 151.249 96.5442 146.994Z" fill="#C6E545"/>
<path id="Vector_96" d="M114.24 177.252C121.235 175.294 129.508 191.426 122.398 193.647C115.289 195.87 99.7882 181.297 114.24 177.252Z" fill="#C6E545"/>
<path id="Vector_97" d="M124.404 166.322C129.031 166.947 140.996 178.848 134.641 182.715C128.288 186.576 113.944 169.275 123.329 166.407" fill="#C6E545"/>
<path id="Vector_98" d="M90.6602 161.449C94.0513 160.054 98.6615 169.674 94.8285 171.157C90.9931 172.639 87.2667 162.843 90.6602 161.449Z" fill="#C6E545"/>
<path id="Vector_99" d="M99.5933 177.081C102.153 177.06 106.785 183.244 102.723 184.397C98.6691 185.544 95.573 177.105 99.5933 177.081Z" fill="#C6E545"/>
</g>
</g>
</g>
<defs>
<linearGradient id="paint0_linear_189_11174" x1="49.4995" y1="295" x2="124" y2="326" gradientUnits="userSpaceOnUse">
<stop stop-color="#A3A3A3"/>
<stop offset="1" stop-opacity="0"/>
</linearGradient>
<clipPath id="clip0_189_11174">
<rect width="248" height="326" fill="white"/>
</clipPath>
</defs>
</svg>
