<svg width="248" height="326" viewBox="0 0 248 326" fill="none" xmlns="http://www.w3.org/2000/svg">
<g id="Frame" clip-path="url(#clip0_189_10104)">
<g id="Group">
<path id="Vector" d="M138.774 252.262C151.636 266.316 183.159 279.537 227.104 239.636C235.71 239.636 227.687 272.882 187.841 279.855C212.094 284.542 239.789 255.491 247.001 261.732C252.157 266.728 238.096 299.218 186.942 291.664C198.23 297.265 220.575 290.356 223.947 299.083C209.117 318.29 143.421 307.695 116.895 253.141L138.774 252.262Z" fill="#93C73E"/>
<path id="Vector_2" d="M137.652 246.123C147.525 257.204 167.32 261.223 179.932 259.213C175.523 264.771 157.815 267.66 148.151 265.133C160.807 277.833 176.962 284.624 176.962 284.624C166.506 287.508 147.056 282.878 135.504 270.445C146.291 284.653 160.5 294.641 163.659 296.105C142.331 295.841 121.298 279.378 117.465 259.769L137.652 246.123Z" fill="#55962A"/>
<path id="Vector_3" d="M135.505 254.098C145.796 259.177 161.872 261.882 161.872 261.882C141.836 263.133 128.695 257.666 128.695 257.666L135.505 254.098Z" fill="#467E33"/>
<path id="Vector_4" d="M134.56 255.491C138.867 263.625 151.286 275.401 157.817 278.528C143.32 273.754 127.32 256.999 127.653 256.113C127.987 255.227 130.818 277.786 145.463 287.672C130.458 278.695 122.986 265.304 123.055 256.113L134.56 255.491Z" fill="#467E33"/>
<path id="Vector_5" d="M171.52 268.136C187.196 264.059 202.545 253.917 203.986 254.889C205.426 255.855 206.643 256.193 206.643 256.193C206.643 256.193 206.095 253.498 206.953 252.555C213.327 245.347 225.881 238.133 227.73 239.881C230.232 246.299 217.28 263.945 204.912 269.714C202.686 269.552 197.245 267.659 197.245 267.659L199.645 272.516C193.038 277.458 179.342 276.053 175.183 272.516C192.542 267.328 210.7 259.352 220.249 250.226C198.48 262.884 184.969 267.66 171.52 268.136Z" fill="#B4DD43"/>
<path id="Vector_6" d="M190.444 281.66C202.502 280.548 240.11 256.069 247 261.732C247.954 272.211 229.959 285.55 216.231 287.588C214.19 287.402 210.109 284.542 210.109 284.542L211.593 289.069C201.947 291.662 182.096 289.282 169.852 279.357C191.186 287.216 216.045 285.34 239.049 268.585C222.167 277.027 203.968 281.751 190.444 281.66Z" fill="#B4DD43"/>
<path id="Vector_7" d="M171.52 288.822C182.897 290.054 218.87 291.322 223.517 298.224C221.978 303.15 199.965 305.573 193.533 304.115C191.803 302.41 189.585 298.555 189.585 298.555L189.559 303.128C180.671 303.151 163.601 295.492 155.934 285.612C171.766 296.727 195.757 299.388 213.073 298.555C194.028 296.232 171.52 288.822 171.52 288.822Z" fill="#B4DD43"/>
</g>
<g id="Group_2">
<path id="Vector_8" d="M43.0879 248.746C57.2045 264.354 77.8658 268.651 79.4512 263.562C80.5555 260.05 59.7921 252.929 50.5141 234.932C46.5077 228.725 37.0001 233.476 38.5132 241.139C40.0262 248.798 43.0879 248.746 43.0879 248.746Z" fill="#490D6D"/>
<path id="Vector_9" d="M34.9504 244.965C37.8284 267.57 52.3227 274.464 49.0705 278.412C45.8206 282.363 19.7443 263.799 16.8789 241.191L34.9504 244.965Z" fill="#490D6D"/>
<path id="Vector_10" d="M25.8236 244.094C31.6703 266.954 68.4492 287.958 81.4845 276.611C69.968 271.438 52.5497 261.897 45.2509 240.97C39.007 229.674 24.4001 238.556 25.8236 244.094Z" fill="#490D6D"/>
<path id="Vector_11" d="M5.98132 210.321C-1.34393 254.188 31.6501 274.394 25.7679 255.794C39.601 273.849 43.4766 258.816 34.9483 244.965C49.5482 259.566 64.5764 250.859 47.103 236.724C58.7849 245.469 65.8139 238.333 52.2976 226.833C46.0331 213.464 45.8977 198.556 25.4464 193.496C4.98373 188.433 5.98132 210.321 5.98132 210.321Z" fill="#467E33"/>
<path id="Vector_12" d="M6.375 226.535C6.73432 244.525 17.6654 260.424 25.3534 260.511C25.5967 253.807 15.7735 244.265 13.3203 225.929C11.9783 226.273 10.7924 235.597 15.6598 247.156C10.2127 238.831 9.64674 225.547 6.375 226.535Z" fill="#55962A"/>
<path id="Vector_13" d="M18.8008 231.591C18.8846 244.519 29.9052 267.122 40.3116 265.524C44.4765 257.592 31.9222 241.283 29.6825 228.205C29.3117 232.358 24.427 233.352 24.427 233.352C24.2824 238.748 34.8162 258.374 34.8162 258.374C25.7231 250.917 22.2792 233.808 22.2792 233.808C20.2071 233.009 18.8008 231.591 18.8008 231.591Z" fill="#55962A"/>
<path id="Vector_14" d="M33.707 236.246C37.182 247.017 52.8989 254.205 54.9423 248.5C56.98 242.788 45.7103 238.278 44.2834 234.249C44.4314 237.019 42.7152 237.781 42.7152 237.781C45.2488 240.97 51.4341 246.708 51.4341 246.708C46.034 245.685 40.3205 238.307 40.3205 238.307C37.1682 237.525 33.707 236.246 33.707 236.246Z" fill="#67AB3C"/>
<path id="Vector_15" d="M45.8984 231.519C47.2932 237.76 59.1829 241.466 59.4641 237.697C59.7477 233.931 52.466 230.278 49.2023 226.789C48.3184 228.059 48.3241 229.598 48.3241 229.598C49.51 232.13 55.3704 236.116 55.3704 236.116C51.4868 235.673 45.8984 231.519 45.8984 231.519Z" fill="#67AB3C"/>
<path id="Vector_16" d="M57.5418 247.076C66.0759 254.357 79.8814 261.536 79.4498 263.562C79.0273 265.591 66.2515 262.045 54.6133 253.363C57.7048 252.156 57.5418 247.076 57.5418 247.076Z" fill="#622987"/>
<path id="Vector_17" d="M55.7338 261.094C61.6355 269.205 79.1904 276.674 84.2771 275.769C82.9236 282.304 53.1967 276.446 42.043 256.829C45.0254 258.482 47.4844 258.528 47.4844 258.528C49.5978 263.602 60.9261 269.398 60.9261 269.398C57.5418 266.491 55.7338 261.094 55.7338 261.094Z" fill="#622987"/>
<path id="Vector_18" d="M41.7237 266.728C46.5211 272.732 50.9821 277.566 49.0661 278.412C47.1582 279.251 38.5002 273.412 33.2734 265.761C38.0226 269.651 41.7237 266.728 41.7237 266.728Z" fill="#622987"/>
<path id="Vector_19" d="M33.4135 156.129C50.64 158.204 64.5168 189.512 59.6551 215.062C55.5442 236.684 47.4016 226.537 45.1125 212.798C47.5967 248.318 24.9517 235.488 21.5491 214.584C24.9517 235.487 8.61256 230.864 10.1313 213.964C8.86397 231.643 -3.50779 221.073 1.59497 193.02C6.40845 166.544 18.9111 154.379 33.4135 156.129Z" fill="#93C73E"/>
<path id="Vector_20" d="M31.6447 157.52C49.0228 155.146 61.8893 185.761 60.7482 205.824C59.653 225.164 52.2612 216.955 46.5121 199.742C48.2226 212.608 45.7097 224.835 41.9524 226.248C37.7232 227.837 31.1832 218.24 27.2353 200.519C27.8701 210.184 29.7689 222.74 24.7488 223.011C19.7218 223.289 22.7628 200.501 22.7628 200.501C21.5482 211.809 15.8416 220.094 13.3861 216.884C3.66618 204.184 11.368 160.289 31.6447 157.52Z" fill="#87B234"/>
<path id="Vector_21" d="M34.4674 158.921C46.7898 160.155 66.1539 190.268 45.674 189.886C25.194 189.509 19.9535 157.449 34.4674 158.921Z" fill="#C6E545"/>
<path id="Vector_22" d="M39.3498 191.753C46.1883 192.494 47.7679 209.59 40.7297 209.04C33.7006 208.491 25.2125 190.219 39.3498 191.753Z" fill="#C6E545"/>
<path id="Vector_23" d="M52.143 185.721C55.9921 187.898 62.3083 202.574 55.355 203.738C48.412 204.89 41.9053 184.635 51.1637 185.413L52.143 185.721Z" fill="#C6E545"/>
<path id="Vector_24" d="M24.1903 169.559C27.6629 169.524 28.3207 179.607 24.4337 179.558C20.5328 179.515 20.7176 169.587 24.1903 169.559Z" fill="#C6E545"/>
<path id="Vector_25" d="M26.5289 186.442C28.787 187.325 30.6834 194.397 26.6976 193.977C22.7279 193.56 22.9885 185.049 26.5289 186.442Z" fill="#C6E545"/>
</g>
<path id="Vector_26" opacity="0.2" d="M155.482 305.418C128.819 289.259 -16.0049 290.929 22.1286 317.353C44.1388 332.608 191.246 327.095 155.482 305.418Z" fill="url(#paint0_linear_189_10104)"/>
<g id="Group_3">
<g id="Group_4">
<path id="Vector_27" d="M71.2997 247.837C75.5817 250.468 66.9546 289.869 61.4133 291.178C55.8709 292.482 39.945 288.607 38.1599 301.09C38.3252 302.901 39.4009 304.172 40.6935 304.322C40.1539 304.446 35.0351 307.822 38.2471 312.211C41.0069 315.98 55.1316 304.806 68.7994 301.274C75.064 299.659 84.4062 307.507 87.0615 303.92C92.0758 297.146 77.4759 294.373 74.1743 292.248C70.2551 289.741 82.7141 248.908 86.6092 242.684L71.2997 247.837Z" fill="#EA8B00"/>
<path id="Vector_28" d="M40.0876 309.081C41.3079 311.528 49.2129 305.399 56.0181 301.621C62.8153 297.846 68.9638 295.027 75.1354 297.783C81.3069 300.543 85.4316 304.43 86.42 300.638C87.6196 296.056 77.5036 294.281 72.9289 293.245C68.3554 292.208 73.9644 266.103 77.7642 256.113C75.753 257.26 71.8969 258.183 71.8969 258.183C69.4965 267.851 67.5897 292.757 59.2118 292.683C50.8407 292.601 43.9127 292.197 40.8567 295.636C37.8077 299.075 40.6627 302.114 43.2399 299.764C45.8057 297.414 51.7935 297.38 54.3443 297.42C46.1501 300.239 40.2334 302.891 39.7088 305.119L40.0876 309.081Z" fill="#FCA615"/>
<path id="Vector_29" d="M36.0898 310.873C37.0071 312.697 42.5977 309.985 43.0271 307.885C43.4587 305.79 41.9606 303.884 40.1571 303.92C38.3514 303.954 35.0865 308.864 36.0898 310.873Z" fill="#D3BB9F"/>
<path id="Vector_30" d="M37.6021 301.726C38.5125 303.55 43.272 300.915 43.7013 298.814C44.133 296.724 43.4752 294.738 41.6729 294.767C39.8659 294.805 36.5965 299.711 37.6021 301.726Z" fill="#D3BB9F"/>
<path id="Vector_31" d="M36.2414 309.745C36.7144 311.33 41.1111 308.735 40.5635 305.641C40.0091 302.549 35.5457 307.449 36.2414 309.745Z" fill="#EEDACF"/>
<path id="Vector_32" d="M88.7474 301.668C88.3708 303.758 82.3565 303.464 81.4003 301.657C80.4256 299.85 81.3302 297.447 83.0407 296.741C84.7593 296.05 89.1503 299.361 88.7474 301.668Z" fill="#D3BB9F"/>
<path id="Vector_33" d="M88.3033 300.655C88.2723 302.354 83.4198 301.68 83.1099 298.537C82.8045 295.395 88.3355 298.218 88.3033 300.655Z" fill="#EEDACF"/>
<path id="Vector_34" d="M37.5057 300.036C37.9603 301.634 42.8185 299.89 42.2687 296.8C41.7142 293.707 37.1349 298.738 37.5057 300.036Z" fill="#EEDACF"/>
</g>
<path id="Vector_35" d="M84.1022 266.227C84.0563 270.161 76.9251 279.842 70.9648 278.88C65.7587 278.046 62.6477 271.266 61.6914 261.882L84.1022 266.227Z" fill="#67AB3C"/>
<path id="Vector_36" d="M63.606 262.958C61.8553 267.675 64.1937 277.062 69.401 278.379C74.6128 279.702 78.2599 271.946 77.7032 268.197C77.1521 264.446 64.421 260.771 63.606 262.958Z" fill="#93C73E"/>
</g>
<path id="Vector_37" d="M95.3146 133.888C93.9554 147.402 129.733 172.282 140.432 221.022C150.016 264.708 113.338 284.971 65.792 273.1C16.9077 260.897 9.62033 193.42 24.59 162L95.3146 133.888Z" fill="#93C73E"/>
<path id="Vector_38" d="M26.4002 131.905C31.7452 139.169 23.6348 158.474 21.7452 166.939C18.9189 179.607 47.0742 301.089 95.5223 242.684C109.16 226.242 120.559 174.172 123.057 161.608C121.347 155.642 99.5597 143.47 100.114 103.877L26.4002 131.905Z" fill="#93C73E"/>
<g id="Group_5">
<path id="Vector_39" d="M63.9347 172.606C71.6686 195.707 95.2435 252.65 78.9388 266.375C65.5086 273.258 43.1919 266.635 27.7355 244.884C12.2791 223.136 14.1698 186.583 20.0854 167.794C29.1992 138.867 51.044 134.101 63.9347 172.606Z" fill="#B3D334"/>
<path id="Vector_40" d="M20.6389 191.383C20.6389 191.383 13.192 232.55 40.0524 256.842C56.1425 271.394 70.2075 267.475 74.7902 259.014C83.6365 242.684 64.0934 201.22 56.2699 182.989C42.9269 160.111 26.1986 163.76 20.6389 191.383Z" fill="#C6E545"/>
<path id="Vector_41" d="M48.4441 223.923C57.1573 227.869 79.9389 263.374 54.7282 258.142C29.5186 252.915 22.043 229.786 24.541 223.894C27.0401 218.003 36.0632 218.31 48.4441 223.923Z" fill="#DBF253"/>
<path id="Vector_42" d="M66.0009 224.847C71.9498 228.463 69.5206 243.159 63.0644 237.388C56.6059 231.62 56.5909 219.112 66.0009 224.847Z" fill="#DBF253"/>
<path id="Vector_43" d="M28.2056 210.671C34.3243 212.115 39.6349 219.581 31.2432 219.65C22.8606 219.73 22.0754 209.22 28.2056 210.671Z" fill="#DBF253"/>
<path id="Vector_44" d="M49.6014 216.574C54.4619 218.287 53.1291 223.92 48.4442 223.923C43.772 223.927 44.7363 214.848 49.6014 216.574Z" fill="#DBF253"/>
</g>
<path id="Vector_45" d="M77.761 169.383C72.897 202.269 89.2913 231.476 99.0055 234.521C106.086 245.932 116.829 256.515 121.45 253.423C123.98 260.06 142.459 262.27 141.961 247.448L77.761 169.383Z" fill="#467E33"/>
<g id="Group_6">
<g id="Group_7">
<path id="Vector_46" d="M119.618 310.575C120.603 313.675 122.853 323.185 113.125 322.574C106.25 322.145 110.717 312.58 105.447 310.766C100.175 308.939 87.2178 314.248 84.9219 311.567C84.9655 302.182 101.678 305.366 103.605 300.37C104.668 292.539 103.542 281.409 101.434 271.063C103.597 270.212 105.649 268.967 107.509 267.422C109.935 283.497 114.072 299.259 117.904 300.596C122.03 302.182 137.634 307.665 132.662 315.203C127.692 322.74 120.719 310.662 119.618 310.575Z" fill="#EA8B00"/>
<path id="Vector_47" d="M116.57 300.369C112.813 298.867 110.804 282.412 108.013 267.007C106.618 268.225 105.109 269.271 103.52 270.11C106.673 282.254 108.245 295.26 107.245 301.501C105.169 303.615 94.5025 303.788 89.6213 305.421C84.7366 307.057 87.9395 309.92 89.2045 310.261C93.3522 307.361 107.173 305.514 109.585 308.519C112.57 312.241 109.184 321.302 115.918 320.202C123.89 318.899 115.99 307.65 119.02 308.218C123.635 309.084 127.691 316.022 130.502 313.544C133.313 311.065 134.043 307.365 116.57 300.369Z" fill="#FFAF3B"/>
<path id="Vector_48" d="M89.4967 306.236C91.0178 306.849 91.9901 309.009 91.1831 310.129C90.3807 311.249 84.4146 312.118 84.2263 311.244C83.8211 309.368 87.4843 305.437 89.4967 306.236Z" fill="#D3BB9F"/>
<path id="Vector_49" d="M87.3041 306.67C84.2252 308.17 84.2666 311.881 87.8896 310.098C91.5091 308.32 90.0432 305.336 87.3041 306.67Z" fill="#EEDACF"/>
<path id="Vector_50" d="M118.195 317.41C116.616 316.399 113.427 317.268 112.826 318.707C111.965 320.765 114.936 325.497 115.989 324.985C118.245 323.883 120.758 319.043 118.195 317.41Z" fill="#D3BB9F"/>
<path id="Vector_51" d="M118.887 319.616C118.574 323.145 115.122 324.546 114.307 320.675C113.493 316.803 119.157 316.588 118.887 319.616Z" fill="#EEDACF"/>
<path id="Vector_52" d="M131.162 310.81C129.474 310.66 127.214 312.055 127.141 313.341C127.069 314.637 131.507 317.974 132.249 317.323C133.842 315.928 133.397 311.013 131.162 310.81Z" fill="#D3BB9F"/>
<path id="Vector_53" d="M132.956 312.72C133.661 315.612 131.393 317.175 129.651 314.271C127.902 311.363 132.35 310.243 132.956 312.72Z" fill="#EEDACF"/>
</g>
<path id="Vector_54" d="M119.113 264.763C120.684 269.334 115.461 283.918 107.33 285.654C100.24 287.165 93.3973 280.814 88.2578 270.422L119.113 264.763Z" fill="#93C73E"/>
<path id="Vector_55" d="M92.4942 268.641C92.1842 274.932 99.2799 284.007 105.132 282.895C110.217 281.931 111.532 270.636 109.257 266.565C106.982 262.493 92.64 265.716 92.4942 268.641Z" fill="#B3D334"/>
</g>
<path id="Vector_56" d="M82.7769 0C103.288 4.70375 97.7626 33.0547 89.6521 37.8605C100.649 37.9132 103.977 25.6992 101.492 20.3111C116.356 30.1233 106.478 45.5495 98.5271 48.5898C105.009 46.6546 114.406 53.4621 114.136 62.6403C111.297 58.8972 102.133 61.8504 102.133 61.8504C109.979 87.5932 98.2929 111.884 102.895 127.541C108.141 145.384 34.2667 159.414 24.1875 125.062L62.5231 34.8993C70.8344 34.4533 98.5363 13.7284 82.7769 0Z" fill="#93C73E"/>
<path id="Vector_57" d="M100.304 96.3757C98.9107 99.9548 97.1175 103.083 94.9984 105.82V105.821C85.5654 118.004 69.6786 122.414 53.9306 124.152C50.9895 124.477 48.053 124.708 45.1646 124.88C45.0487 124.887 44.935 124.893 44.8214 124.9H44.8202C41.8653 125.071 38.9621 125.181 36.1576 125.263H36.1542C35.2863 125.289 34.4276 125.312 33.5804 125.335C32.7286 125.357 31.8883 125.377 31.0594 125.397C31.0135 125.398 30.9664 125.4 30.9205 125.401C30.5727 125.409 30.2271 125.418 29.8839 125.426C29.2514 125.441 28.62 125.436 27.9897 125.409H27.9886C26.7798 125.359 25.5755 125.236 24.3816 125.041C24.3242 125.032 24.2657 125.022 24.2072 125.012C21.4417 124.545 18.7405 123.706 16.2069 122.552C16.1346 122.52 16.0634 122.486 15.9911 122.453C14.8741 121.935 13.7893 121.356 12.7469 120.72C1.99608 114.172 -4.30403 101.701 3.43679 89.1212C3.51485 88.838 3.59177 88.5411 3.66868 88.2281C3.66868 88.2269 3.66868 88.227 3.66868 88.2258C4.66398 84.1973 5.63057 77.8049 7.55459 70.7418C7.58443 70.6283 7.61658 70.5148 7.64757 70.4002C8.51659 67.2509 9.57732 63.9733 10.9193 60.7187C11.1397 60.1844 11.367 59.6502 11.6035 59.1171C12.228 57.7001 12.9099 56.2923 13.6561 54.9052C19.7771 43.519 30.1548 33.5589 48.7865 31.8794C55.2772 31.2947 61.3569 31.9642 66.928 33.6173H66.9292C94.2189 41.7088 109.26 73.3568 100.304 96.3757Z" fill="#93C73E"/>
<path id="Vector_58" d="M52.6713 32.5971C79.7682 33.9717 91.4902 62.8912 90.2148 78.4802C91.7852 83.5015 97.3162 110.692 72.2202 117.651C45.9442 124.933 26.4549 122.896 9.8081 113.28C-4.89749 104.784 2.36117 94.4372 4.83391 88.5744C10.2191 52.3189 24.058 31.1331 52.6713 32.5971Z" fill="#B3D334"/>
<path id="Vector_59" d="M44.9429 35.5343C77.6844 36.8251 77.9484 83.5141 38.9252 85.5708C2.86833 87.4727 10.057 34.1643 44.9429 35.5343Z" fill="#C6E545"/>
<path id="Vector_60" d="M24.4349 78.805C24.4326 79.0549 24.428 79.3083 24.4223 79.5651C24.4211 79.6017 24.42 79.6384 24.4188 79.6751C24.3959 80.5315 24.3499 81.4188 24.2799 82.3394C24.2363 82.9092 24.1835 83.4904 24.1203 84.0854C23.7932 85.5092 23.4052 86.7909 22.9655 87.9362C22.8266 88.2996 22.6819 88.6481 22.5327 88.984C22.0666 90.0353 21.5546 90.9593 21.0059 91.7629V91.7641C18.5699 95.3306 15.4221 96.5664 12.4718 96.3016C12.4649 96.3005 12.4569 96.3005 12.4489 96.2993C12.2927 96.2844 12.1366 96.2661 11.9805 96.2431C11.8714 96.2271 11.7612 96.2088 11.6522 96.1881C8.34368 95.5759 5.40142 93.118 4.17308 90.0387C3.94004 89.4552 3.76899 88.8487 3.66797 88.2285C3.66797 88.2274 3.66797 88.2274 3.66797 88.2262C4.14782 80.34 5.44848 74.5208 6.87083 70.1048C6.93626 69.903 7.0017 69.7036 7.06713 69.5075C8.26218 65.9273 9.52036 63.3043 10.433 61.2499C10.5754 61.0561 10.7384 60.8796 10.9186 60.7191C11.2917 60.3866 11.7406 60.1264 12.2457 59.9498C13.1709 59.6243 14.2822 59.575 15.4531 59.865C18.4907 60.6182 21.9254 63.6585 23.5257 70.0956C23.6198 70.4751 23.7082 70.866 23.7897 71.2684C24.0044 72.3392 24.172 73.4948 24.2822 74.7398C24.2983 74.9129 24.3121 75.0871 24.3247 75.2648C24.4085 76.3757 24.4464 77.5542 24.4349 78.805Z" fill="#F2FBFF"/>
<path id="Vector_61" d="M46.7998 84.9541C45.3327 67.0607 59.5687 55.404 73.7991 62.0234C92.6718 70.8072 87.5771 116.453 54.9803 100.708L46.7998 84.9541Z" fill="#F2FBFF"/>
<path id="Vector_62" d="M80.5007 97.9946C80.6844 98.8945 80.6844 99.9263 80.1104 100.5C77.2405 103.939 75.5185 106.69 76.4369 111.39C76.6665 112.193 75.7481 113.683 74.6001 113.11C72.7634 112.193 74.2557 109.671 73.5669 107.951C73.2225 107.149 72.419 107.263 72.0746 107.951C71.845 108.524 71.9598 109.098 71.9598 109.671C72.419 112.078 74.2557 115.632 71.5006 117.123C70.5822 117.696 69.4342 117.237 68.975 116.549C67.4827 114.6 68.6306 112.193 68.2862 110.015C68.0566 109.212 67.5975 107.493 66.7939 108.181C66.1051 108.754 66.6791 110.244 66.5643 111.39C66.4495 112.078 65.7607 112.652 65.0719 112.193C63.0056 110.359 63.9239 107.493 63.0056 105.2C62.3168 103.48 60.5948 102.907 59.332 101.761C59.4468 101.646 59.6764 101.531 59.7912 101.531C62.9711 103.8 66.5126 103.972 69.9703 103.385C73.5027 102.785 76.9397 101.367 79.0967 98.1528C79.5444 97.9567 80.3526 97.716 80.5007 97.9946Z" fill="#23AEF9"/>
<g id="Group_8">
<path id="Vector_63" d="M71.0798 66.8225C86.147 69.982 87.6165 100.844 67.5062 99.7361C45.8174 98.5484 52.6261 62.9831 71.0798 66.8225Z" fill="#859E5A"/>
<path id="Vector_64" d="M72.1908 71.9757C84.2847 74.5047 86.6289 100.457 69.3185 98.3926C52.0128 96.3406 57.3784 68.885 72.1908 71.9757Z" fill="#0D192D"/>
<path id="Vector_65" d="M55.902 80.5911C59.7925 76.0318 64.6565 86.455 63.233 88.4131C61.8118 90.3781 52.3019 84.7664 55.902 80.5911Z" fill="#F2FBFF"/>
<path id="Vector_66" d="M75.8436 86.2049C77.786 86.1648 78.3979 90.2025 75.7598 89.8322C73.124 89.4412 73.6636 86.2496 75.8436 86.2049Z" fill="#E3DBE6"/>
</g>
<g id="Group_9">
<path id="Vector_67" d="M20.0132 69.7616C28.0123 72.4764 26.3248 93.3286 16.5922 91.3888C5.0757 89.1155 10.2198 66.4599 20.0132 69.7616Z" fill="#859E5A"/>
<path id="Vector_68" d="M21.0345 71.815C27.6687 74.039 26.2647 91.3477 18.1818 89.7404C8.63635 87.8431 12.9126 69.0704 21.0345 71.815Z" fill="#0D192D"/>
<path id="Vector_69" d="M11.4577 72.2789C13.8661 69.9047 16.3779 77.5238 15.4848 78.6908C14.5894 79.8441 9.13531 74.5695 11.4577 72.2789Z" fill="#F2FBFF"/>
<path id="Vector_70" d="M20.7159 81.7235C21.8248 81.8679 21.9798 84.5437 20.5023 84.0782C19.0168 83.6013 19.4715 81.571 20.7159 81.7235Z" fill="#E3DBE6"/>
</g>
<g id="Group_10">
<path id="Vector_71" d="M27.356 120.427C27.356 120.427 34.9683 133.227 42.0811 132.235C53.5162 130.641 63.2935 112.127 59.7657 100.221C55.9108 87.2492 41.3855 76.6574 31.0778 77.1378C12.337 78.0263 2.725 108.198 20.7873 128.981C23.9144 126.618 27.356 120.427 27.356 120.427Z" fill="#EF9F14"/>
<path id="Vector_72" d="M48.6756 116.068C48.438 121.698 45.4177 125.808 41.4262 127.469C38.1303 128.833 33.582 125.337 33.582 125.337C38.702 125.74 45.0997 122.753 48.6756 116.068Z" fill="#FDC60A"/>
<path id="Vector_73" d="M53.3641 99.2659C57.8136 99.4734 55.9206 105.938 49.6458 111.141C43.3847 116.343 33.6969 114.612 23.6211 121.661C28.7434 114.769 43.8106 115.826 49.3037 109.767C55.4431 102.977 50.5929 99.1456 53.3641 99.2659Z" fill="#541334"/>
<path id="Vector_74" d="M47.382 111.855C44.7084 120.048 39.7158 122.913 36.5256 123.174C33.6488 123.405 32.0312 118.737 32.0312 118.737C35.0987 116.069 47.382 111.855 47.382 111.855Z" fill="#541334"/>
<path id="Vector_75" d="M44.0797 111.454C41.0881 111.135 33.4976 114.854 39.6956 120.642C43.5161 119.085 47.9094 111.552 44.0797 111.454Z" fill="#DB3A5D"/>
<path id="Vector_76" d="M51.5701 97.0318C53.7903 103.289 52.1177 111.411 41.0592 114.372C30.003 117.329 29.5863 132.395 29.9571 135.362C26.6532 137.535 15.5821 128.1 12.7592 120.751C9.24297 111.628 8.49564 86.2635 22.7684 80.2712C37.039 74.2811 49.4911 91.1851 51.5701 97.0318Z" fill="#EF9F14"/>
</g>
<path id="Vector_77" d="M85.8626 3.63184C100.793 4.64298 98.3583 34.2699 74.7227 30.0889C82.4658 27.7387 90.1561 10.766 85.8626 3.63184Z" fill="#C6E545"/>
<path id="Vector_78" d="M102.826 23.9888C108.914 26.3057 107.325 49.2581 91.4141 39.6557C102.629 36.3701 102.826 23.9888 102.826 23.9888Z" fill="#C6E545"/>
<path id="Vector_79" d="M98.2891 50.6327C106.164 47.7162 111.405 48.1094 112.721 59.224C108.431 52.1334 100.049 56.4898 98.2891 50.6327Z" fill="#C6E545"/>
<path id="Vector_80" d="M31.9538 77.8947C43.0938 77.2275 51.1905 91.4225 49.3698 102.153C48.0014 110.158 41.1985 111.325 35.0499 113.405C28.3078 115.692 28.8669 129.15 24.8582 130.723C21.032 132.228 14.089 120.41 12.8951 115.274C10.466 104.83 9.84606 79.2223 31.9538 77.8947Z" fill="#FDC60A"/>
<path id="Vector_81" d="M42.4057 94.2664C44.3963 95.14 48.5703 98.969 45.3353 100.504C42.0785 102.056 40.9971 93.6485 42.4057 94.2664Z" fill="#EF9F14"/>
<path id="Vector_82" d="M19.5075 88.7727C23.429 89.6956 18.7889 104.487 15.6951 104.872C10.9505 105.473 10.528 86.6553 19.5075 88.7727Z" fill="#FFF148"/>
<path id="Vector_83" d="M50.1523 68.839C50.1523 68.839 84.6376 96.6316 86.3286 81.9333L85.3792 70.0576L68.9631 57.1191L51.445 59.224L50.1523 68.839Z" fill="#C6E545"/>
<path id="Vector_84" d="M86.5702 80.6448C86.5025 82.0686 86.2626 83.4971 85.855 84.7937C85.281 86.6279 83.2147 87.4304 81.4927 87.4304C75.5519 87.6563 69.7776 86.1831 64.5049 83.5785C59.0773 80.8981 51.7498 77.3924 47.7422 72.9317C47.7422 72.9317 49.3207 69.9877 49.6295 67.1767C49.7971 65.1739 50.8417 62.2092 51.6453 61.98C57.0075 60.3853 63.0505 61.1683 68.7593 59.827C68.7949 59.819 68.8294 59.8098 68.865 59.8018C73.6865 64.7314 80.4595 67.9413 84.707 72.9856C85.2581 73.6585 85.6874 74.5264 85.9951 75.5146C86.4692 77.0347 86.6586 78.8369 86.5702 80.6448Z" fill="#C6E545"/>
<g id="Group_11">
<path id="Vector_85" d="M148.432 229.154C169.555 236.09 190.75 229.235 189.541 223.741C188.709 219.943 165.942 224.262 148.003 212.61C141.084 209.006 134.852 218.331 140.255 224.569C145.652 230.802 148.432 229.154 148.432 229.154Z" fill="#490D6D"/>
<path id="Vector_86" d="M138.993 229.936C153.466 249.166 170.372 247.91 169.459 253.228C168.549 258.548 134.912 255.153 120.441 235.919L138.993 229.936Z" fill="#490D6D"/>
<path id="Vector_87" d="M130.159 233.907C147.505 251.814 192.229 251.854 198.233 234.642C184.973 235.914 163.999 236.267 146.34 220.892C134.701 213.8 125.962 229.574 130.159 233.907Z" fill="#490D6D"/>
<path id="Vector_88" d="M94.2803 213.308C110.541 257.355 151.382 258.644 136.242 244.664C158.388 253.991 154.066 238.18 138.993 229.936C160.03 235.697 169.243 219.863 145.814 216.032C161.108 217.946 163.818 207.73 145.397 204.247C132.649 195.262 124.724 181.666 103.311 187.712C81.8971 193.76 94.2803 213.308 94.2803 213.308Z" fill="#55962A"/>
<path id="Vector_89" d="M103.133 227.97C112.889 244.279 131.239 253.143 138.338 249.21C135.05 242.927 121.038 239.315 109.188 223.782C108.139 224.801 111.937 233.972 122.459 242.025C113.096 237.237 105.617 225.354 103.133 227.97Z" fill="#67AB3C"/>
<path id="Vector_90" d="M117.18 226.115C124.026 237.925 145.972 252.886 154.675 245.987C154.342 236.536 134.288 228.141 125.387 217.321C127.222 221.324 123.262 224.783 123.262 224.783C125.955 229.808 145.894 242.302 145.894 242.302C133.653 240.213 121.527 226.324 121.527 226.324C119.215 226.677 117.18 226.115 117.18 226.115Z" fill="#67AB3C"/>
<path id="Vector_91" d="M133.289 222.589C142.122 230.654 160.296 229.027 159.177 222.731C158.052 216.427 145.355 218.183 141.936 215.231C143.521 217.697 142.348 219.295 142.348 219.295C146.343 220.893 155.02 222.922 155.02 222.922C149.539 224.807 140.434 221.024 140.434 221.024C137.13 221.958 133.289 222.589 133.289 222.589Z" fill="#67AB3C"/>
<path id="Vector_92" d="M141.98 211.889C146.531 216.879 159.372 214.066 157.662 210.465C155.951 206.864 147.354 207.316 142.536 205.822C142.388 207.449 143.203 208.861 143.203 208.861C145.615 210.562 153.073 211.154 153.073 211.154C149.287 212.775 141.98 211.889 141.98 211.889Z" fill="#67AB3C"/>
<path id="Vector_93" d="M160.812 220.068C172.451 222.285 188.871 221.657 189.541 223.742C190.211 225.821 176.644 229.245 161.421 227.366C163.624 224.644 160.812 220.068 160.812 220.068Z" fill="#622987"/>
<path id="Vector_94" d="M166.496 233.873C176.158 238.224 196.168 235.9 200.356 232.409C202.538 239.113 172.21 249.271 151.707 237.11C155.307 237.067 157.582 235.825 157.582 235.825C162.182 239.374 175.607 238.767 175.607 238.767C170.983 237.87 166.496 233.873 166.496 233.873Z" fill="#622987"/>
<path id="Vector_95" d="M156.608 246.355C164.148 249.348 170.769 251.45 169.459 253.228C168.151 254.993 157.15 254.166 148.355 249.881C154.751 250.964 156.608 246.355 156.608 246.355Z" fill="#622987"/>
<path id="Vector_96" d="M91.5867 147.467C108.468 140.372 137.054 163.643 145.981 189.611C153.533 211.582 140.752 206.534 131.454 195.14C152.341 226.404 130.08 224.23 116.009 206.834C129.529 227.558 115.064 228.8 107.596 212.514C107.515 232.374 91.7554 229.669 81.1906 199.737C71.7347 172.945 77.3712 153.439 91.5867 147.467Z" fill="#93C73E"/>
<path id="Vector_97" d="M89.1316 146.176C109.518 135.68 132.676 161.579 142.143 180.569C151.272 198.875 140.187 195.21 125.901 182.433C134.208 193.334 138.31 205.857 135.603 209.117C132.56 212.782 121.532 207.398 108.633 193.213C114.271 201.743 122.6 212.263 118.133 215.138C113.668 218.021 104.524 195.54 104.524 195.54C105.573 206.126 106.999 211.386 102.956 212.735C94.744 215.491 77.0445 191.905 79.4633 166.634C82.2862 178.316 92.0509 187.805 92.0509 187.805C83.3285 173.725 79.422 151.175 89.1316 146.176Z" fill="#B3D334"/>
<path id="Vector_98" d="M96.5448 146.994C109.102 143.372 139.926 165.278 119.706 172.943C99.487 180.607 81.7416 151.249 96.5448 146.994Z" fill="#C6E545"/>
<path id="Vector_99" d="M114.24 177.252C121.235 175.294 129.508 191.426 122.397 193.647C115.29 195.87 99.788 181.297 114.24 177.252Z" fill="#C6E545"/>
<path id="Vector_100" d="M124.406 166.322C129.033 166.947 140.998 178.848 134.643 182.715C128.29 186.576 113.946 169.275 123.331 166.407L124.406 166.322Z" fill="#C6E545"/>
<path id="Vector_101" d="M90.6623 161.449C94.0534 160.054 98.6637 169.674 94.8306 171.157C90.9941 172.639 87.2689 162.843 90.6623 161.449Z" fill="#C6E545"/>
<path id="Vector_102" d="M99.5952 177.081C102.155 177.06 106.787 183.244 102.725 184.397C98.6711 185.543 95.575 177.105 99.5952 177.081Z" fill="#C6E545"/>
</g>
<path id="Vector_103" d="M24.4212 71.8405C24.1078 71.7293 24.0951 71.3051 23.7921 71.2684C23.7783 71.2673 23.7645 71.2661 23.7496 71.2661C23.3731 71.3819 22.9919 71.4943 22.6074 71.6043C22.1987 71.7212 21.7854 71.8347 21.3698 71.9425C19.7914 72.3495 18.1773 72.6774 16.5874 72.8321C16.4462 72.847 16.305 72.8596 16.1637 72.87C15.5484 72.9192 14.9377 72.9399 14.335 72.9284C14.2214 72.9261 14.1089 72.9227 13.9975 72.9181C13.5268 72.8998 13.0608 72.8608 12.6027 72.7977C12.1401 72.7347 11.6855 72.6475 11.2401 72.5329C10.231 72.2761 9.26899 71.8829 8.37701 71.3211C8.09576 71.1457 7.82254 70.9531 7.55621 70.7422C7.44141 70.6528 7.33006 70.5599 7.21871 70.4636C7.0775 70.3226 7.03618 69.9707 7.06947 69.5075C8.26451 65.9273 9.5227 63.3043 10.4353 61.2499C10.5777 61.0561 10.7407 60.8796 10.9209 60.7191C11.1413 60.1849 11.3686 59.6506 11.6051 59.1175C12.3215 57.9929 13.1055 56.9439 13.9918 56.0188C14.0228 55.9855 14.0549 55.9523 14.0894 55.9202C14.6783 55.3561 15.6873 54.9698 16.7343 54.7738C16.7538 54.7703 16.7733 54.7669 16.7928 54.7635C18.3403 54.4826 19.9555 54.6202 20.4205 55.2163C23.0608 58.4263 22.6016 63.5851 23.543 67.9553C24.0446 70.2183 24.4212 71.8405 24.4212 71.8405Z" fill="#C6E545"/>
<path id="Vector_104" d="M87.1937 80.4753C87.126 81.8991 86.2615 83.4972 85.854 84.7938C85.28 86.6281 83.2136 87.4306 81.4917 87.4306C75.5509 87.6564 69.7766 86.1833 64.5039 83.5786C66.9342 77.5382 68.4679 65.7897 68.7583 59.8271C68.8123 58.6979 68.8226 57.7762 68.7859 57.1399L68.9661 57.1182L85.3822 70.0566L87.1937 76.1189V80.4753Z" fill="#B3D334"/>
<path id="Vector_105" d="M11.3213 94.8075C10.8552 97.3445 6.80856 103.824 6.15422 99.5846C5.50102 95.3452 11.6335 93.1039 11.3213 94.8075Z" fill="#23AEF9"/>
<path id="Vector_106" d="M67.1106 132.253C66.827 132.633 66.0682 132.727 65.5941 132.348C65.1935 132.044 64.8525 131.709 64.5655 131.346C63.1409 129.565 62.9698 127.16 63.1248 124.929C63.1845 124.091 63.2901 123.171 63.4382 122.167H63.4393C63.4393 122.16 63.4405 122.154 63.4416 122.147C63.739 122.335 64.0351 122.546 64.3244 122.778C64.3508 122.799 64.3784 122.82 64.4048 122.843C64.422 122.856 64.4381 122.87 64.4542 122.883C64.4989 122.92 64.5425 122.957 64.5862 122.994C64.5965 123.002 64.6057 123.011 64.6149 123.018C64.6642 123.06 64.7125 123.102 64.7618 123.146C64.8261 123.203 64.8904 123.262 64.9547 123.321C65.0293 123.39 65.1028 123.46 65.1751 123.532C65.221 123.577 65.2669 123.623 65.3117 123.669C65.3151 123.672 65.3197 123.676 65.3232 123.68C65.3771 123.735 65.4299 123.791 65.4839 123.848C65.4942 123.859 65.5057 123.871 65.5172 123.883C65.5631 123.934 65.6102 123.984 65.6561 124.036C65.6595 124.039 65.6641 124.044 65.6676 124.047C66.1176 124.55 66.5274 125.099 66.8718 125.681C67.4435 126.643 67.8372 127.692 67.944 128.759C67.944 128.76 67.944 128.761 67.9451 128.762C68.0622 129.935 67.8315 131.13 67.1106 132.253Z" fill="#23AEF9"/>
<path id="Vector_107" d="M67.1099 132.253C66.8264 132.633 66.0675 132.727 65.5934 132.348C65.1928 132.044 64.8518 131.709 64.5648 131.346C65.0929 131.487 65.7048 131.265 65.9941 130.88C67.3716 129.389 66.9125 127.211 66.1984 125.359C66.0629 125.08 65.9034 124.809 65.7208 124.543C65.5085 124.24 65.2766 123.946 65.0309 123.665C64.5407 123.104 64 122.599 63.4386 122.167H63.4375C63.4386 122.16 63.4398 122.154 63.4409 122.147C63.7383 122.335 64.0345 122.546 64.3237 122.778C64.3502 122.799 64.3777 122.82 64.4041 122.843C64.4213 122.856 64.4374 122.87 64.4535 122.883C64.4982 122.92 64.5419 122.957 64.5855 122.994C64.5958 123.002 64.605 123.011 64.6142 123.018C64.6635 123.06 64.7118 123.102 64.7611 123.146C64.8254 123.203 64.8897 123.262 64.954 123.321C65.0286 123.39 65.1021 123.46 65.1744 123.532C65.2203 123.577 65.2662 123.623 65.311 123.669C65.3145 123.672 65.3191 123.676 65.3225 123.68C65.3764 123.735 65.4293 123.791 65.4832 123.848C65.4935 123.859 65.505 123.871 65.5165 123.883C65.5624 123.934 65.6095 123.984 65.6554 124.036C65.6588 124.039 65.6634 124.044 65.6669 124.047C65.8689 124.247 66.0629 124.466 66.2466 124.699C66.4337 124.939 66.6105 125.195 66.7758 125.47C66.8068 125.54 66.839 125.61 66.8711 125.681C67.2936 126.628 67.7378 127.697 67.9433 128.759C67.9433 128.76 67.9433 128.761 67.9445 128.762C68.0616 129.935 67.8308 131.13 67.1099 132.253Z" fill="#22A4EB"/>
<path id="Vector_108" d="M93.8345 138.005C93.8345 139.151 92.4569 139.839 91.309 139.724C91.131 139.635 90.883 139.615 90.6741 139.503C90.6133 139.471 90.557 139.432 90.5054 139.38C89.3574 137.89 89.7018 135.941 89.2828 134.298C89.1588 133.668 88.9946 133.051 88.7696 132.504C88.7524 132.464 88.7352 132.424 88.7168 132.384C88.7007 132.344 88.6835 132.305 88.664 132.267C88.6479 132.228 88.6296 132.19 88.61 132.152C88.5917 132.114 88.5733 132.077 88.5526 132.04C88.5343 132.003 88.5148 131.968 88.4941 131.931C88.4746 131.895 88.4539 131.86 88.4333 131.825C88.4149 131.792 88.3942 131.76 88.3736 131.729C88.3518 131.692 88.3288 131.657 88.3047 131.623C88.3609 131.666 88.4183 131.709 88.4769 131.752C88.7007 131.918 88.9372 132.086 89.1783 132.253C89.1794 132.254 89.1817 132.254 89.1829 132.255C91.3135 133.731 93.9344 135.298 93.8345 138.005Z" fill="#23AEF9"/>
<path id="Vector_109" d="M14.335 72.9282C14.2214 72.9259 14.1089 72.9225 13.9975 72.9179C13.5268 72.8995 13.0608 72.8606 12.6027 72.7975C12.1401 72.7344 11.6855 72.6473 11.2401 72.5327C10.231 72.2759 9.269 71.8827 8.37702 71.3209C8.09576 71.1455 7.82254 70.9529 7.55621 70.742C7.44141 70.6525 7.33006 70.5597 7.21871 70.4634C7.0775 70.3224 7.03618 69.9704 7.06947 69.5073C8.26451 65.927 9.5227 63.304 10.4353 61.2496C10.5777 61.0559 10.7407 60.8793 10.9209 60.7188C11.1413 60.1846 11.3686 59.6504 11.6051 59.1173C12.3215 57.9926 13.1055 56.9437 13.9918 56.0185C14.0228 55.9853 14.0549 55.952 14.0894 55.9199C14.6783 55.3559 15.6873 54.9695 16.7343 54.7735C16.7538 54.7701 16.7733 54.7666 16.7928 54.7632C16.1488 57.2968 13.5464 68.0284 14.335 72.9282Z" fill="#B3D334"/>
<path id="Vector_110" d="M47.7422 72.9316C47.7422 72.9316 70.8154 93.1957 84.7403 86.2221" stroke="#759E31" stroke-width="4" stroke-miterlimit="10" stroke-linecap="round" stroke-linejoin="round"/>
<path id="Vector_111" d="M23.7514 71.2658C23.7514 71.2658 13.3025 76.051 6.875 70.1045" stroke="#759E31" stroke-width="4" stroke-miterlimit="10" stroke-linecap="round" stroke-linejoin="round"/>
<path id="Vector_112" d="M63.9656 129.954C64.2021 130.733 65.0309 131.142 65.4821 130.55C65.846 129.825 65.427 129.045 64.8369 128.573C64.4432 128.258 63.9461 128.495 63.7819 129.037C63.7498 129.301 63.8083 129.629 63.9656 129.954Z" fill="#69C6F9"/>
<path id="Vector_113" d="M91.1621 137.387C91.2402 137.98 90.9956 138.502 90.6168 138.553C90.238 138.602 89.8672 138.162 89.788 137.568C89.7099 136.974 89.9544 136.452 90.3332 136.402C90.7132 136.351 91.084 136.793 91.1621 137.387Z" fill="#69C6F9"/>
<path id="Vector_114" d="M71.7591 115.528C72.2919 115.494 72.6858 114.875 72.639 114.145C72.5923 113.415 72.1224 112.851 71.5897 112.885C71.0569 112.919 70.6629 113.538 70.7097 114.268C70.7565 114.998 71.2263 115.562 71.7591 115.528Z" fill="#69C6F9"/>
<path id="Vector_115" d="M76.2258 111.761C76.2258 112.17 75.9491 112.503 75.607 112.503C75.2649 112.503 74.9883 112.17 74.9883 111.761C74.9883 111.352 75.2649 111.019 75.607 111.019C75.948 111.018 76.2258 111.35 76.2258 111.761Z" fill="#69C6F9"/>
<path id="Vector_116" d="M65.722 111.855C65.9978 111.855 66.2214 111.461 66.2214 110.976C66.2214 110.49 65.9978 110.096 65.722 110.096C65.4462 110.096 65.2227 110.49 65.2227 110.976C65.2227 111.461 65.4462 111.855 65.722 111.855Z" fill="#69C6F9"/>
<path id="Vector_117" d="M7.96029 97.6601C7.69855 98.1129 7.22788 98.3319 6.90874 98.1484C6.59075 97.965 6.54483 97.448 6.80657 96.9951C7.06831 96.5423 7.53898 96.3233 7.85812 96.5068C8.17611 96.6913 8.22203 97.2072 7.96029 97.6601Z" fill="#69C6F9"/>
<path id="Vector_118" d="M93.8345 138.005C93.8345 139.151 92.4569 139.839 91.309 139.724C91.131 139.635 90.883 139.615 90.6741 139.503C91.41 139.02 91.8496 138.195 91.9392 137.3C92.054 136.153 91.7096 135.007 90.9623 134.202C90.7476 133.939 90.5065 133.695 90.2425 133.48C90.0163 133.285 89.7775 133.107 89.5307 132.943C89.2851 132.78 89.0291 132.635 88.7696 132.504C88.7685 132.504 88.7685 132.503 88.7673 132.503C88.7512 132.463 88.734 132.423 88.7168 132.384C88.6996 132.345 88.6824 132.306 88.664 132.267C88.6468 132.228 88.6284 132.19 88.61 132.152C88.5917 132.114 88.5722 132.078 88.5526 132.04C88.5343 132.003 88.5148 131.968 88.4941 131.931C88.4746 131.895 88.4539 131.86 88.4333 131.825C88.4137 131.792 88.3942 131.76 88.3736 131.729C88.3518 131.692 88.3288 131.657 88.3047 131.623C88.3609 131.666 88.4183 131.709 88.4769 131.752C88.7007 131.918 88.9372 132.086 89.1783 132.253C89.1794 132.254 89.1817 132.254 89.1829 132.255C91.3135 133.731 93.9344 135.298 93.8345 138.005Z" fill="#22A4EB"/>
</g>
<defs>
<linearGradient id="paint0_linear_189_10104" x1="34.5" y1="299.5" x2="125" y2="326" gradientUnits="userSpaceOnUse">
<stop stop-color="#E8E9EC"/>
<stop offset="1" stop-opacity="0"/>
</linearGradient>
<clipPath id="clip0_189_10104">
<rect width="248" height="326" fill="white"/>
</clipPath>
</defs>
</svg>
