<svg width="80" height="80" viewBox="0 0 80 80" fill="none" xmlns="http://www.w3.org/2000/svg">
<circle cx="40" cy="40" r="39.5" fill="#D5EBFF" stroke="#B7CBDD"/>
<mask id="mask0_233_772" style="mask-type:alpha" maskUnits="userSpaceOnUse" x="0" y="0" width="80" height="80">
<circle cx="40" cy="40" r="40" fill="#ECECEC"/>
</mask>
<g mask="url(#mask0_233_772)">
<g clip-path="url(#clip0_233_772)">
<path d="M28.2828 71.7327C35.6457 72.6196 41.5769 86.001 39.4989 96.9217C37.7418 106.163 34.2615 101.826 33.2831 95.9539C34.3449 111.136 24.6661 105.652 23.2117 96.7174C24.6661 105.652 17.6824 103.676 18.3316 96.4523C17.7899 104.009 12.502 99.4908 14.683 87.5004C16.7403 76.1838 22.0842 70.9844 28.2828 71.7327Z" fill="#93C73E"/>
<path d="M27.5275 72.3272C34.9552 71.3124 40.4545 84.3979 39.9668 92.9734C39.4987 101.24 36.3393 97.7308 33.8821 90.3739C34.6132 95.8727 33.5391 101.099 31.9331 101.703C30.1255 102.382 27.3302 98.2801 25.6428 90.7056C25.9141 94.8368 26.7257 100.203 24.58 100.319C22.4314 100.438 23.7312 90.6983 23.7312 90.6983C23.212 95.5312 20.7729 99.0724 19.7234 97.7004C15.5694 92.2722 18.8613 73.5105 27.5275 72.3272Z" fill="#87B234"/>
<path d="M28.7335 72.9258C34.0003 73.4535 42.2769 86.3244 33.5234 86.1607C24.7699 86 22.53 72.2966 28.7335 72.9258Z" fill="#C6E545"/>
<path d="M24.3411 77.4727C25.8254 77.458 26.1066 81.7675 24.4452 81.7465C22.7774 81.7283 22.8564 77.4849 24.3411 77.4727Z" fill="#C6E545"/>
<path d="M54.7388 62.2261C54.1579 68.0022 69.45 78.6367 74.023 99.4691C78.1191 118.141 62.4423 126.802 42.1204 121.728C21.2264 116.512 18.1116 87.6714 24.5099 74.2419" fill="#93C73E"/>
<path d="M25.2837 61.3785C27.5682 64.4836 24.1017 72.7347 23.294 76.3529C22.086 81.7674 34.1201 133.691 54.8277 108.728C60.6568 101.7 65.5286 79.4443 66.5963 74.0744C65.8657 71.5244 56.5533 66.3216 56.7903 49.3989" fill="#93C73E"/>
<path d="M41.3271 78.775C44.6327 88.649 54.709 112.987 47.7401 118.854C41.9998 121.796 32.4613 118.965 25.8549 109.668C19.2486 100.372 20.0567 84.7491 22.5851 76.7184C26.4805 64.3542 35.8174 62.3173 41.3271 78.775Z" fill="#B3D334"/>
<path d="M22.823 86.8005C22.823 86.8005 19.64 104.396 31.1206 114.779C37.9978 120.999 44.0094 119.324 45.9682 115.707C49.7492 108.728 41.3961 91.0052 38.0522 83.2127C32.3492 73.4342 25.1993 74.9939 22.823 86.8005Z" fill="#C6E545"/>
<path d="M47.2364 77.3975C45.1574 91.4536 52.1646 103.937 56.3167 105.238C59.3431 110.116 63.9347 114.639 65.9097 113.318C66.9911 116.155 74.8893 117.099 74.6764 110.764" fill="#467E33"/>
<path d="M40.7217 19.9171C44.2736 19.726 56.1139 10.8678 49.378 5C58.1448 7.01048 55.7832 19.1282 52.3166 21.1823C57.0167 21.2048 58.4392 15.9844 57.3774 13.6814C63.7305 17.8753 59.5083 24.4687 56.11 25.7682C58.8798 24.9411 62.8969 27.8507 62.7816 31.7737C61.5681 30.1738 57.6512 31.4361 57.6512 31.4361C61.0049 42.439 56.0099 52.8212 57.977 59.5136C60.2193 67.14 28.644 73.1366 24.3359 58.4537" fill="#93C73E"/>
<path d="M56.8718 46.193C61.4806 34.3467 51.2188 17.1516 34.8522 18.6265C17.8698 20.1568 16.9306 37.7836 15.4689 43.0923C10.6035 50.9999 18.7162 58.8066 26.7729 58.6096C37.0847 58.3563 52.2149 58.1593 56.8718 46.193Z" fill="#93C73E"/>
<path d="M36.5119 18.9328C48.0936 19.5203 53.1038 31.8811 52.5587 38.5441C53.2299 40.6903 55.5939 52.3122 44.8675 55.2865C33.6366 58.399 25.3066 57.5282 18.1915 53.4181C11.906 49.7867 15.0085 45.3644 16.0654 42.8586C18.3671 27.3623 24.2821 18.3071 36.5119 18.9328Z" fill="#B3D334"/>
<path d="M33.2078 20.1879C47.2021 20.7396 47.3149 40.6954 30.6357 41.5745C15.2244 42.3874 18.297 19.6023 33.2078 20.1879Z" fill="#C6E545"/>
<path d="M18.4599 31.1797C19.8043 29.3549 25.3797 30.8043 24.3101 40.94C22.4902 48.8795 16.1591 46.3604 15.5684 42.7099C15.9535 36.3722 17.5801 33.1578 18.4599 31.1797Z" fill="#F2FBFF"/>
<path d="M34.0036 41.3113C33.3766 33.6629 39.4613 28.681 45.5431 31.5103C53.6097 35.2647 51.4321 54.7746 37.4996 48.0449" fill="#F2FBFF"/>
<path d="M43.8778 32.5965C50.3178 33.9469 50.9458 47.1378 42.3503 46.6644C33.0802 46.1563 35.9903 30.9555 43.8778 32.5965Z" fill="#859E5A"/>
<path d="M44.3528 34.7983C49.522 35.8793 50.5239 46.9719 43.1252 46.0894C35.7284 45.2128 38.0217 33.4778 44.3528 34.7983Z" fill="#0D192D"/>
<path d="M37.0466 35.9997C38.7095 34.051 40.7884 38.5061 40.18 39.343C39.573 40.1829 35.5079 37.7843 37.0466 35.9997Z" fill="#F2FBFF"/>
<path d="M45.9141 40.881C46.7443 40.8638 47.0058 42.5896 45.8783 42.4313C44.7517 42.2643 44.9823 40.9001 45.9141 40.881Z" fill="#E3DBE6"/>
<path d="M21.6989 33.8291C25.6041 35.0771 24.7803 44.6625 20.0287 43.7712C14.4066 42.726 16.9178 32.311 21.6989 33.8291Z" fill="#859E5A"/>
<path d="M22.1982 34.7721C25.4371 35.7948 24.7517 43.7514 20.8057 43.0125C16.1459 42.1408 18.2332 33.5109 22.1982 34.7721Z" fill="#0D192D"/>
<path d="M17.521 34.9858C18.6966 33.8946 19.9233 37.3966 19.4871 37.9337C19.0499 38.4638 16.387 36.0388 17.521 34.9858Z" fill="#F2FBFF"/>
<path d="M22.0431 39.328C22.5843 39.3941 22.6599 40.624 21.9391 40.4104C21.2144 40.1913 21.4362 39.2579 22.0431 39.328Z" fill="#E3DBE6"/>
<path d="M25.6922 56.4726C25.6922 56.4726 28.9458 61.9439 31.986 61.5196C36.8735 60.8385 41.0525 52.925 39.5447 47.8363C37.897 42.2919 31.6886 37.7648 27.2829 37.9701C19.2728 38.3498 15.1645 51.2457 22.8846 60.129C24.2217 59.1191 25.6922 56.4726 25.6922 56.4726Z" fill="#EF9F14"/>
<path d="M34.8048 54.6094C34.7032 57.0158 33.4123 58.7724 31.7062 59.4824C30.2975 60.0655 28.3535 58.571 28.3535 58.571C30.5414 58.7435 33.2759 57.4666 34.8048 54.6094Z" fill="#FDC60A"/>
<path d="M36.8103 47.4279C38.7121 47.5166 37.903 50.2797 35.221 52.5034C32.545 54.727 28.4042 53.9871 24.0977 57.0001C26.287 54.0542 32.727 54.506 35.0748 51.9163C37.6989 49.0141 35.6258 47.3765 36.8103 47.4279Z" fill="#541334"/>
<path d="M34.854 52.1001C33.4193 56.4974 30.7393 58.0355 29.0273 58.1751C27.4837 58.2996 26.6152 55.7942 26.6152 55.7942C28.2614 54.3619 34.854 52.1001 34.854 52.1001Z" fill="#541334"/>
<path d="M33.0806 51.8852C31.4747 51.7142 27.4011 53.7099 30.7279 56.817C32.7784 55.9811 35.136 51.9376 33.0806 51.8852Z" fill="#DB3A5D"/>
<path d="M36.0425 46.4732C36.9914 49.1476 36.2765 52.6193 31.5499 53.8849C26.8243 55.1486 26.6462 61.5882 26.8047 62.8564C25.3926 63.7849 20.6606 59.7522 19.454 56.6113C17.9511 52.7119 17.6317 41.8706 23.7322 39.3094C29.8316 36.7491 35.1544 43.9742 36.0425 46.4732Z" fill="#EF9F14"/>
<path d="M50.6989 6.55225C57.0805 6.98443 56.0398 19.6475 45.9375 17.8605C49.247 16.856 52.534 9.60152 50.6989 6.55225Z" fill="#C6E545"/>
<path d="M57.948 15.2534C60.55 16.2437 59.8709 26.054 53.0703 21.9498C57.8641 20.5454 57.948 15.2534 57.948 15.2534Z" fill="#C6E545"/>
<path d="M56.0098 26.6413C59.3757 25.3948 61.6156 25.5628 62.1784 30.3134C60.3448 27.2827 56.762 29.1447 56.0098 26.6413Z" fill="#C6E545"/>
<path d="M27.6581 38.2939C32.4195 38.0087 35.8801 44.0759 35.1019 48.6623C34.5171 52.084 31.6094 52.5828 28.9814 53.4716C26.0997 54.4492 26.3387 60.2013 24.6252 60.8736C22.9899 61.5169 20.0223 56.4655 19.512 54.2703C18.4733 49.8064 18.2083 38.8613 27.6581 38.2939Z" fill="#FDC60A"/>
<path d="M32.1261 45.2912C32.9769 45.6646 34.7609 47.3012 33.3782 47.9573C31.9857 48.6208 31.5235 45.0271 32.1261 45.2912Z" fill="#EF9F14"/>
<path d="M22.338 42.9431C24.0141 43.3376 22.0308 49.6596 20.7085 49.8242C18.6801 50.081 18.4995 42.0381 22.338 42.9431Z" fill="#FFF148"/>
<path d="M53.1452 68.03C60.3605 64.9974 72.5785 74.9439 76.3944 86.043C79.622 95.4338 74.1595 93.2764 70.1851 88.4062C79.1127 101.769 69.5977 100.84 63.5836 93.4047C69.3622 102.263 63.1798 102.793 59.988 95.8322C59.9532 104.321 53.2173 103.165 48.7017 90.3711C44.6601 78.9198 47.0698 70.5824 53.1452 68.03Z" fill="#93C73E"/>
<path d="M52.0957 67.4785C60.8095 62.992 70.7072 74.0616 74.7537 82.1785C78.6555 90.0029 73.9176 88.4363 67.8118 82.9753C71.3622 87.6347 73.1154 92.987 71.9584 94.3805C70.6576 95.9471 65.9443 93.6455 60.4312 87.5827C62.8408 91.2288 66.4006 95.7251 64.4914 96.954C62.5832 98.1864 58.6746 88.5774 58.6746 88.5774C59.1231 93.1021 59.7325 95.3503 58.0043 95.927C54.4946 97.1049 46.9295 87.0237 47.9634 76.2226C49.1699 81.2157 53.3435 85.2714 53.3435 85.2714C49.6159 79.2532 47.9462 69.6149 52.0957 67.4785Z" fill="#B3D334"/>
<path d="M55.2654 67.8281C60.6328 66.2802 73.8072 75.6431 65.1651 78.9193C56.523 82.195 48.9388 69.647 55.2654 67.8281Z" fill="#C6E545"/>
<path d="M62.8284 80.7607C65.8181 79.9238 69.3543 86.8186 66.3151 87.7682C63.2769 88.7184 56.6514 82.4894 62.8284 80.7607Z" fill="#C6E545"/>
<path d="M67.1735 76.0894C69.1513 76.3564 74.2656 81.4431 71.5492 83.0959C68.8339 84.7462 62.703 77.3516 66.7142 76.1256" fill="#C6E545"/>
<path d="M52.7501 74.0062C54.1996 73.4099 56.1701 77.5219 54.5318 78.1555C52.8924 78.7891 51.2997 74.602 52.7501 74.0062Z" fill="#C6E545"/>
</g>
</g>
<defs>
<clipPath id="clip0_233_772">
<rect width="106" height="139.339" fill="white" transform="translate(14 5)"/>
</clipPath>
</defs>
</svg>
