<svg width="34" height="34" viewBox="0 0 34 34" fill="none" xmlns="http://www.w3.org/2000/svg">
<circle cx="17" cy="17" r="17" fill="#202968"/>
<g clip-path="url(#clip0_233_129)">
<path d="M16.5306 7.96289C13.4649 7.96289 10.9707 10.4571 10.9707 13.5228V13.5921C10.9707 14.5642 11.7616 15.3549 12.7335 15.3549C13.0043 15.3549 13.2645 15.2949 13.5069 15.1765C14.1173 14.8781 14.4965 14.2711 14.4965 13.5921V13.5228C14.4965 12.4012 15.4091 11.4887 16.5306 11.4887C17.6523 11.4887 18.5648 12.4012 18.5648 13.5228C18.5648 14.6445 17.6523 15.557 16.5306 15.557H16.2626C15.2905 15.557 14.4997 16.3477 14.4997 17.3198V20.2326C14.4997 21.2047 15.2905 21.9956 16.2626 21.9956C17.2347 21.9956 18.0254 21.2047 18.0254 20.2326V18.8789C20.4068 18.2157 22.0905 16.0329 22.0905 13.5228C22.0906 10.4571 19.5965 7.96289 16.5306 7.96289Z" fill="white"/>
<path d="M16.234 22.6646C15.0489 22.6646 14.085 23.6287 14.085 24.8137C14.085 25.9986 15.0491 26.9627 16.234 26.9627C17.419 26.9627 18.383 25.9986 18.383 24.8137C18.383 23.6287 17.419 22.6646 16.234 22.6646Z" fill="white"/>
</g>
<defs>
<clipPath id="clip0_233_129">
<rect width="19" height="19" fill="white" transform="translate(7 8)"/>
</clipPath>
</defs>
</svg>
