<svg width="22" height="22" viewBox="0 0 22 22" fill="none" xmlns="http://www.w3.org/2000/svg">
<path d="M21.7254 11.047C21.7291 13.4382 20.9267 15.7615 19.4466 17.6446C17.9665 19.5277 15.8945 20.8617 13.5624 21.4329C11.2304 22.0042 8.77324 21.7795 6.58465 20.795C4.39606 19.8105 2.60268 18.1231 1.49178 16.0031C0.380888 13.8831 0.016776 11.4532 0.457774 9.10265C0.898772 6.75211 2.11936 4.61697 3.924 3.03925C5.72865 1.46153 8.01292 0.53254 10.4109 0.401101C12.8088 0.269662 15.1817 0.943379 17.1494 2.31433L17.0183 1.93465C16.9172 1.62783 16.9426 1.29358 17.089 1.00543C17.2354 0.71727 17.4907 0.498815 17.7989 0.398117C18.107 0.297419 18.4427 0.322727 18.7321 0.468473C19.0215 0.614219 19.2409 0.868466 19.3421 1.17528L20.5337 4.7348C20.5928 4.91324 20.6085 5.10309 20.5795 5.28874C20.5505 5.47439 20.4776 5.65053 20.3669 5.80266C20.2515 5.96441 20.0973 6.09477 19.9182 6.18183C19.7392 6.26889 19.5411 6.30986 19.3421 6.30099H15.7671C15.451 6.30099 15.1479 6.17599 14.9244 5.95347C14.7009 5.73096 14.5754 5.42917 14.5754 5.11449C14.5797 4.86335 14.6639 4.62005 14.816 4.41962C14.968 4.21919 15.18 4.07197 15.4215 3.99917C13.8539 3.02366 12.0053 2.59425 10.1659 2.77837C8.32664 2.96249 6.60085 3.74971 5.25967 5.0164C3.91848 6.28308 3.03787 7.95746 2.75616 9.77654C2.47445 11.5956 2.80759 13.4563 3.70326 15.0664C4.59893 16.6766 6.00638 17.9448 7.70455 18.672C9.40272 19.3993 11.2954 19.5442 13.0853 19.0842C14.8752 18.6242 16.461 17.5852 17.5934 16.1304C18.7259 14.6757 19.341 12.8876 19.3421 11.047C19.3421 10.7323 19.4676 10.4306 19.6911 10.208C19.9146 9.98553 20.2177 9.86052 20.5337 9.86052C20.8498 9.86052 21.1529 9.98553 21.3764 10.208C21.5998 10.4306 21.7254 10.7323 21.7254 11.047Z" fill="#98A5BE"/>
</svg>
