<svg width="34" height="34" viewBox="0 0 34 34" fill="none" xmlns="http://www.w3.org/2000/svg">
<g id="Group 3">
<circle id="Ellipse 21" cx="17" cy="17" r="17" fill="#202968"/>
<g id="speaker-filled-audio-tool (1) 1">
<g id="Group">
<path id="Vector" d="M17.0054 22.6111C17.0054 22.9282 16.8222 23.2163 16.5355 23.3507C16.4246 23.4032 16.3058 23.4285 16.1878 23.4285C16.0009 23.4285 15.8158 23.3643 15.6662 23.2403L11.1975 19.5373H8.81741C8.36604 19.5377 8 19.1714 8 18.7201V15.4634C8 15.0118 8.36604 14.6458 8.81741 14.6458H11.1977L15.6664 10.9428C15.9106 10.7404 16.2491 10.6973 16.5357 10.8327C16.8222 10.9672 17.0056 11.2554 17.0056 11.5723L17.0054 22.6111ZM20.1468 21.3338C20.1269 21.3352 20.1077 21.336 20.088 21.336C19.8721 21.336 19.6639 21.2506 19.5101 21.0966L19.4008 20.9869C19.114 20.7008 19.0804 20.2475 19.3218 19.9221C19.934 19.0967 20.2571 18.1184 20.2571 17.092C20.2571 15.9881 19.8902 14.9526 19.1961 14.0975C18.9318 13.7725 18.9562 13.3004 19.2524 13.0044L19.3615 12.8951C19.5248 12.7318 19.7436 12.6428 19.9804 12.6569C20.211 12.6685 20.4263 12.7771 20.5726 12.9558C21.5355 14.1341 22.0441 15.5646 22.0441 17.0922C22.0441 18.515 21.5943 19.8693 20.7431 21.008C20.6009 21.1978 20.3834 21.317 20.1468 21.3338ZM23.5263 23.86C23.3785 24.0347 23.1647 24.1395 22.9358 24.1492C22.9246 24.1496 22.9132 24.15 22.9016 24.15C22.6851 24.15 22.4773 24.0645 22.3235 23.9106L22.2161 23.8033C21.9161 23.5034 21.8957 23.0238 22.1685 22.6991C23.4868 21.1313 24.2131 19.1401 24.2131 17.092C24.2131 14.9617 23.4356 12.9109 22.0242 11.3175C21.7381 10.9941 21.7526 10.5044 22.0571 10.1987L22.1643 10.0913C22.3233 9.93152 22.5299 9.84349 22.7669 9.85103C22.9919 9.85742 23.2048 9.95686 23.3543 10.1252C25.0603 12.0459 26 14.5204 26 17.092C26.0004 19.5663 25.1218 21.97 23.5263 23.86Z" fill="#FFFF"/>
</g>
</g>
</g>
</svg>
