<svg width="276" height="242" viewBox="0 0 276 242" fill="none" xmlns="http://www.w3.org/2000/svg">
<g id="Frame" clip-path="url(#clip0_189_11287)">
<g id="Vector" filter="url(#filter0_d_189_10234)">
<path d="M231.964 115.519C231.214 98.7158 218.931 85.1587 203.102 82.1404C203.339 80.3863 203.425 78.5872 203.343 76.7553C202.606 60.2537 188.633 47.4733 172.133 48.211C165.692 48.4979 159.817 50.8032 155.095 54.4895C153.224 45.8791 145.375 39.6129 136.278 40.0186C129.199 40.3342 123.233 44.6087 120.418 50.6085C113.767 45.9549 105.59 43.373 96.854 43.7644C75.7938 44.705 59.4869 62.5405 60.4274 83.6014C60.5442 86.2141 60.9211 88.7529 61.5317 91.1955C50.7445 96.1011 43.469 107.201 44.0304 119.766C44.768 136.268 58.7412 149.048 75.2406 148.311C78.7503 148.153 82.092 147.397 85.1694 146.145C85.1366 146.975 85.1386 147.813 85.1755 148.659C85.9131 165.161 99.8863 177.941 116.386 177.203C123.852 176.869 131.019 173.695 136.28 168.388C137.241 167.419 138.216 166.347 139.101 165.197C141.71 169.38 145.187 173.98 149.811 178.443C158.553 186.877 167.878 191.426 174.739 193.9C176.284 194.457 177.542 192.568 176.426 191.365C171.5 186.053 165.386 177.886 161.346 166.642C160.285 163.689 159.477 160.827 158.865 158.097C162.135 163.579 168.121 167.253 174.967 167.253C183.994 167.253 191.528 160.868 193.308 152.368C194.828 152.616 196.383 152.741 197.994 152.669C217.632 151.79 232.841 135.157 231.964 115.519Z" fill="white"/>
<path d="M176.426 191.365C177.542 192.568 176.284 194.457 174.739 193.9L176.426 191.365ZM176.426 191.365C171.5 186.053 165.386 177.886 161.346 166.642L176.426 191.365ZM202.606 82.0733L202.543 82.5428L203.008 82.6315C218.615 85.6075 230.725 98.9748 231.464 115.541C232.329 134.904 217.334 151.303 197.972 152.17C196.402 152.24 194.882 152.118 193.389 151.874L192.917 151.797L192.819 152.265C191.086 160.539 183.752 166.753 174.967 166.753C168.305 166.753 162.478 163.178 159.294 157.841L158.377 158.207C158.994 160.955 159.807 163.838 160.875 166.811C164.944 178.134 171.1 186.358 176.059 191.705L176.059 191.705C176.814 192.518 175.968 193.811 174.909 193.429L174.909 193.429C168.094 190.973 158.837 186.456 150.158 178.083C145.567 173.653 142.115 169.086 139.526 164.933L139.145 164.322L138.705 164.892C137.836 166.021 136.876 167.077 135.925 168.036C130.752 173.254 123.704 176.375 116.363 176.704C100.14 177.429 86.4006 164.863 85.6751 148.637C85.6388 147.805 85.6368 146.98 85.669 146.164L85.6996 145.389L84.981 145.682C81.9558 146.912 78.6702 147.656 75.2183 147.811C58.9948 148.537 45.2551 135.97 44.5299 119.744C43.9779 107.39 51.1309 96.4746 61.7387 91.6506L62.1178 91.4782L62.0168 91.0742C61.4143 88.6638 61.0422 86.1581 60.9269 83.5791C59.9988 62.794 76.0921 45.1922 96.8763 44.2639L96.8764 44.2639C105.499 43.8777 113.568 46.4254 120.131 51.0182L120.618 51.3589L120.871 50.8209C123.61 44.9825 129.415 40.8251 136.3 40.5181C145.15 40.1234 152.786 46.2192 154.606 54.5957L154.775 55.3733L155.403 54.8837C160.046 51.2591 165.821 48.9926 172.155 48.7105L172.133 48.211L172.155 48.7105C188.379 47.9852 202.119 60.5518 202.844 76.7776C202.924 78.5793 202.84 80.3484 202.606 82.0733Z" stroke="url(#paint0_linear_189_10234)"/>
</g>
<text stroke="#000" transform="matrix(1.045902132987976,0,0,1,-1.7672321200370789,0) " xml:space="preserve" text-anchor="start" font-family="Helvetica, Arial, sans-serif" font-size="24" id="svg_3" y="101.453125" x="77.700608" stroke-width="0" fill="#000000">Попробуй</text>
  <text xml:space="preserve" text-anchor="start" font-family="Helvetica, Arial, sans-serif" font-size="24" id="svg_4" y="130" x="110.5" fill-opacity="null" stroke-opacity="null" stroke-width="0" stroke="#000" fill="#000000">ещё</text>
<!-- <path fill="#434553" d="m90.95617,99.74l-4.8,0l0,-1.74l11.58003,0l0,1.74l-4.80003,0l0,12.26l-1.98,0l0,-12.26zm10.26433,3.44c0.3334,-0.61333 0.8267,-1.08 1.48,-1.4c0.6534,-0.32 1.4467,-0.48 2.38,-0.48l0,1.86c-0.1066,-0.01333 -0.2533,-0.02 -0.44,-0.02c-1.04,0 -1.86,0.31333 -2.46,0.94c-0.5866,0.61333 -0.88,1.49333 -0.88,2.64l0,5.28l-1.92,0l0,-10.6l1.84,0l0,1.78zm16.0361,-1.78l-5.14,11.66c-0.4533,1.08 -0.9866,1.84 -1.6,2.28c-0.6,0.44 -1.3266,0.66 -2.18,0.66c-0.52,0 -1.0266,-0.0867 -1.52,-0.26c-0.48,-0.16 -0.88,-0.4 -1.2,-0.72l0.82,-1.44c0.5467,0.52 1.18,0.78 1.9,0.78c0.4667,0 0.8534,-0.1267 1.16,-0.38c0.32,-0.24 0.6067,-0.66 0.86,-1.26l0.34,-0.74l-4.68,-10.58l2,0l3.7,8.48l3.66,-8.48l1.88,0zm11.023,-0.1c1.4667,0 2.5867,0.36 3.36,1.08c0.7867,0.72 1.18,1.79333 1.18,3.22l0,6.4l-1.82,0l0,-1.4c-0.32,0.4933 -0.78,0.8733 -1.38,1.14c-0.5867,0.2533 -1.2867,0.38 -2.1,0.38c-1.1867,0 -2.14,-0.2867 -2.86,-0.86c-0.7067,-0.5733 -1.06,-1.3267 -1.06,-2.26c0,-0.9333 0.34,-1.68 1.02,-2.24c0.68,-0.5733 1.76,-0.86 3.24,-0.86l3.04,0l0,-0.38c0,-0.82667 -0.24,-1.46 -0.72,-1.9c-0.48,-0.44 -1.1867,-0.66 -2.12,-0.66c-0.6267,0 -1.24,0.10667 -1.84,0.32c-0.6,0.2 -1.1067,0.47333 -1.52,0.82l-0.8,-1.44c0.5467,-0.44 1.2,-0.77333 1.96,-1c0.76,-0.24 1.5667,-0.36 2.42,-0.36zm-0.44,9.34c0.7333,0 1.3667,-0.16 1.9,-0.48c0.5333,-0.3333 0.92,-0.8 1.16,-1.4l0,-1.48l-2.96,0c-1.6267,0 -2.44,0.5467 -2.44,1.64c0,0.5333 0.2067,0.9533 0.62,1.26c0.4133,0.3067 0.9867,0.46 1.72,0.46zm18.7317,-9.24l0,9.16c0,1.8533 -0.46,3.22 -1.38,4.1c-0.92,0.8933 -2.2933,1.34 -4.12,1.34c-1,0 -1.9533,-0.14 -2.86,-0.42c-0.9066,-0.2667 -1.64,-0.6533 -2.2,-1.16l0.92,-1.48c0.4934,0.4267 1.1,0.76 1.82,1c0.7334,0.2533 1.4867,0.38 2.26,0.38c1.24,0 2.1534,-0.2933 2.74,-0.88c0.6,-0.5867 0.9,-1.48 0.9,-2.68l0,-0.84c-0.4533,0.5467 -1.0133,0.96 -1.68,1.24c-0.6533,0.2667 -1.3666,0.4 -2.14,0.4c-1.0133,0 -1.9333,-0.2133 -2.76,-0.64c-0.8133,-0.44 -1.4533,-1.0467 -1.92,-1.82c-0.4666,-0.7867 -0.7,-1.68 -0.7,-2.68c0,-1 0.2334,-1.88667 0.7,-2.66c0.4667,-0.78667 1.1067,-1.39333 1.92,-1.82c0.8267,-0.42667 1.7467,-0.64 2.76,-0.64c0.8,0 1.54,0.14667 2.22,0.44c0.6934,0.29333 1.26,0.72667 1.7,1.3l0,-1.64l1.82,0zm-5.52,8.48c0.6934,0 1.3134,-0.1467 1.86,-0.44c0.56,-0.2933 0.9934,-0.7 1.3,-1.22c0.32,-0.5333 0.48,-1.1333 0.48,-1.8c0,-1.02667 -0.34,-1.85333 -1.02,-2.48c-0.68,-0.64 -1.5533,-0.96 -2.62,-0.96c-1.08,0 -1.96,0.32 -2.64,0.96c-0.68,0.62667 -1.02,1.45333 -1.02,2.48c0,0.6667 0.1534,1.2667 0.46,1.8c0.32,0.52 0.7534,0.9267 1.3,1.22c0.56,0.2933 1.1934,0.44 1.9,0.44zm13.0486,-8.58c1.4667,0 2.5867,0.36 3.36,1.08c0.7867,0.72 1.18,1.79333 1.18,3.22l0,6.4l-1.82,0l0,-1.4c-0.32,0.4933 -0.78,0.8733 -1.38,1.14c-0.5866,0.2533 -1.2866,0.38 -2.1,0.38c-1.1866,0 -2.14,-0.2867 -2.86,-0.86c-0.7066,-0.5733 -1.06,-1.3267 -1.06,-2.26c0,-0.9333 0.34,-1.68 1.02,-2.24c0.68,-0.5733 1.76,-0.86 3.24,-0.86l3.04,0l0,-0.38c0,-0.82667 -0.24,-1.46 -0.72,-1.9c-0.48,-0.44 -1.1866,-0.66 -2.12,-0.66c-0.6266,0 -1.24,0.10667 -1.84,0.32c-0.6,0.2 -1.1066,0.47333 -1.52,0.82l-0.8,-1.44c0.5467,-0.44 1.2,-0.77333 1.96,-1c0.76,-0.24 1.5667,-0.36 2.42,-0.36zm-0.44,9.34c0.7334,0 1.3667,-0.16 1.9,-0.48c0.5334,-0.3333 0.92,-0.8 1.16,-1.4l0,-1.48l-2.96,0c-1.6266,0 -2.44,0.5467 -2.44,1.64c0,0.5333 0.2067,0.9533 0.62,1.26c0.4134,0.3067 0.9867,0.46 1.72,0.46zm8.5331,-9.24l1.92,0l0,10.6l-1.92,0l0,-10.6zm0.96,-2.04c-0.3733,0 -0.6866,-0.12 -0.94,-0.36c-0.24,-0.24 -0.36,-0.53333 -0.36,-0.88c0,-0.34667 0.12,-0.64 0.36,-0.88c0.2534,-0.25333 0.5667,-0.38 0.94,-0.38c0.3734,0 0.68,0.12 0.92,0.36c0.2534,0.22667 0.38,0.51333 0.38,0.86c0,0.36 -0.1266,0.66667 -0.38,0.92c-0.24,0.24 -0.5466,0.36 -0.92,0.36zm10.286,1.94c1.3467,0 2.4133,0.39333 3.2,1.18c0.8,0.77333 1.2,1.91333 1.2,3.42l0,6.1l-1.92,0l0,-5.88c0,-1.02667 -0.2467,-1.8 -0.74,-2.32c-0.4933,-0.52 -1.2,-0.78 -2.12,-0.78c-1.04,0 -1.86,0.30667 -2.46,0.92c-0.6,0.6 -0.9,1.46667 -0.9,2.6l0,5.46l-1.92,0l0,-10.6l1.84,0l0,1.6c0.3867,-0.54667 0.9067,-0.96667 1.56,-1.26c0.6667,-0.29333 1.42,-0.44 2.26,-0.44zm7.6933,-3.3l2.26,0l-0.38,9.58l-1.52,0l-0.36,-9.58zm1.14,14.12c-0.3734,0 -0.6867,-0.12 -0.94,-0.36c-0.2534,-0.2533 -0.38,-0.56 -0.38,-0.92c0,-0.36 0.1266,-0.66 0.38,-0.9c0.2533,-0.2533 0.5666,-0.38 0.94,-0.38c0.3733,0 0.68,0.1267 0.92,0.38c0.24,0.24 0.36,0.54 0.36,0.9c0,0.36 -0.1267,0.6667 -0.38,0.92c-0.24,0.24 -0.54,0.36 -0.9,0.36z" id="Try again!"/> -->
</g>
<defs>
<filter id="filter0_d_189_10234" x="0" y="0" width="276" height="242" filterUnits="userSpaceOnUse" color-interpolation-filters="sRGB">
<feFlood flood-opacity="0" result="BackgroundImageFix"/>
<feColorMatrix in="SourceAlpha" type="matrix" values="0 0 0 0 0 0 0 0 0 0 0 0 0 0 0 0 0 0 127 0" result="hardAlpha"/>
<feOffset dy="4"/>
<feGaussianBlur stdDeviation="22"/>
<feComposite in2="hardAlpha" operator="out"/>
<feColorMatrix type="matrix" values="0 0 0 0 0.86809 0 0 0 0 0.898171 0 0 0 0 0.958333 0 0 0 1 0"/>
<feBlend mode="normal" in2="BackgroundImageFix" result="effect1_dropShadow_189_10234"/>
<feBlend mode="normal" in="SourceGraphic" in2="effect1_dropShadow_189_10234" result="shape"/>
</filter>
<linearGradient id="paint0_linear_189_10234" x1="163.797" y1="197.885" x2="93.5331" y2="19.8435" gradientUnits="userSpaceOnUse">
<stop stop-color="#B3DAFE"/>
<stop offset="1" stop-color="#EEF7FF" stop-opacity="0"/>
</linearGradient>
</defs>
</svg>
