<svg width="280" height="230" viewBox="0 0 280 230" fill="none" xmlns="http://www.w3.org/2000/svg">
<g id="Frame" clip-path="url(#clip0_189_11287)">
<g id="Vector" filter="url(#filter0_d_189_11287)">
<path d="M229.964 128.519C229.214 111.716 216.931 98.1587 201.102 95.1404C201.339 93.3863 201.425 91.5872 201.343 89.7553C200.606 73.2537 186.633 60.4733 170.133 61.211C163.692 61.4979 157.817 63.8032 153.095 67.4895C151.224 58.8791 143.375 52.6129 134.278 53.0186C127.199 53.3342 121.233 57.6087 118.418 63.6085C111.767 58.9549 103.59 56.373 94.854 56.7644C73.7938 57.705 57.4869 75.5405 58.4274 96.6014C58.5442 99.2141 58.9211 101.753 59.5317 104.195C48.7445 109.101 41.469 120.201 42.0304 132.766C42.768 149.268 56.7412 162.048 73.2406 161.311C76.7503 161.153 80.092 160.397 83.1694 159.145C83.1366 159.975 83.1386 160.813 83.1755 161.659C83.9131 178.161 97.8863 190.941 114.386 190.203C121.852 189.869 129.019 186.695 134.28 181.388C135.241 180.419 136.216 179.347 137.101 178.197C139.71 182.38 143.187 186.98 147.811 191.443C156.553 199.877 165.878 204.426 172.739 206.9C174.284 207.457 175.542 205.568 174.426 204.365C169.5 199.053 163.386 190.886 159.346 179.642C158.285 176.689 157.477 173.827 156.865 171.097C160.135 176.579 166.121 180.253 172.967 180.253C181.994 180.253 189.528 173.868 191.308 165.368C192.828 165.616 194.383 165.741 195.994 165.669C215.632 164.79 230.841 148.157 229.964 128.519Z" fill="white"/>
<path d="M174.426 204.365C175.542 205.568 174.284 207.457 172.739 206.9L174.426 204.365ZM174.426 204.365C169.5 199.053 163.386 190.886 159.346 179.642L174.426 204.365ZM200.606 95.0733L200.543 95.5428L201.008 95.6315C216.615 98.6075 228.725 111.975 229.464 128.541C230.329 147.904 215.334 164.303 195.972 165.17C194.402 165.24 192.882 165.118 191.389 164.874L190.917 164.797L190.819 165.265C189.086 173.539 181.752 179.753 172.967 179.753C166.305 179.753 160.478 176.178 157.294 170.841L156.377 171.207C156.994 173.955 157.807 176.838 158.875 179.811C162.944 191.134 169.1 199.358 174.059 204.705L174.059 204.705C174.814 205.518 173.968 206.811 172.909 206.429L172.909 206.429C166.094 203.973 156.837 199.456 148.158 191.083C143.567 186.653 140.115 182.086 137.526 177.933L137.145 177.322L136.705 177.892C135.836 179.021 134.876 180.077 133.925 181.036C128.752 186.254 121.704 189.375 114.363 189.704C98.1401 190.429 84.4006 177.863 83.6751 161.637C83.6388 160.805 83.6368 159.98 83.669 159.164L83.6996 158.389L82.981 158.682C79.9558 159.912 76.6702 160.656 73.2183 160.811C56.9948 161.537 43.2551 148.97 42.5299 132.744C41.9779 120.39 49.1309 109.475 59.7387 104.651L60.1178 104.478L60.0168 104.074C59.4143 101.664 59.0422 99.1581 58.9269 96.5791C57.9988 75.794 74.0921 58.1922 94.8763 57.2639L94.8764 57.2639C103.499 56.8777 111.568 59.4254 118.131 64.0182L118.618 64.3589L118.871 63.8209C121.61 57.9825 127.415 53.8251 134.3 53.5181C143.15 53.1234 150.786 59.2192 152.606 67.5957L152.775 68.3733L153.403 67.8837C158.046 64.2591 163.821 61.9926 170.155 61.7105L170.133 61.211L170.155 61.7105C186.379 60.9852 200.119 73.5518 200.844 89.7776C200.924 91.5793 200.84 93.3484 200.606 95.0733Z" stroke="url(#paint0_linear_189_11287)"/>
</g>
<text xml:space="preserve" text-anchor="start" font-family="Helvetica, Arial, sans-serif" font-size="24" id="svg_4" y="129.453125" x="80.5" stroke-width="0" stroke="#000" fill="#000000">Молодец!</text>
<!-- <path id="Well done!" d="M100.474 116L95.7938 130H93.6938L89.8738 118.82L86.0538 130H83.9138L79.2338 116H81.2938L85.0738 127.38L89.0138 116H90.8538L94.7138 127.44L98.5738 116H100.474ZM111.42 124.76C111.42 124.907 111.406 125.1 111.38 125.34H102.78C102.9 126.273 103.306 127.027 104 127.6C104.706 128.16 105.58 128.44 106.62 128.44C107.886 128.44 108.906 128.013 109.68 127.16L110.74 128.4C110.26 128.96 109.66 129.387 108.94 129.68C108.233 129.973 107.44 130.12 106.56 130.12C105.44 130.12 104.446 129.893 103.58 129.44C102.713 128.973 102.04 128.327 101.56 127.5C101.093 126.673 100.86 125.74 100.86 124.7C100.86 123.673 101.086 122.747 101.54 121.92C102.006 121.093 102.64 120.453 103.44 120C104.253 119.533 105.166 119.3 106.18 119.3C107.193 119.3 108.093 119.533 108.88 120C109.68 120.453 110.3 121.093 110.74 121.92C111.193 122.747 111.42 123.693 111.42 124.76ZM106.18 120.92C105.26 120.92 104.486 121.2 103.86 121.76C103.246 122.32 102.886 123.053 102.78 123.96H109.58C109.473 123.067 109.106 122.34 108.48 121.78C107.866 121.207 107.1 120.92 106.18 120.92ZM114.086 115.16H116.006V130H114.086V115.16ZM119.672 115.16H121.592V130H119.672V115.16ZM140.629 115.16V130H138.789V128.32C138.362 128.907 137.822 129.353 137.169 129.66C136.515 129.967 135.795 130.12 135.009 130.12C133.982 130.12 133.062 129.893 132.249 129.44C131.435 128.987 130.795 128.353 130.329 127.54C129.875 126.713 129.649 125.767 129.649 124.7C129.649 123.633 129.875 122.693 130.329 121.88C130.795 121.067 131.435 120.433 132.249 119.98C133.062 119.527 133.982 119.3 135.009 119.3C135.769 119.3 136.469 119.447 137.109 119.74C137.749 120.02 138.282 120.44 138.709 121V115.16H140.629ZM135.169 128.44C135.835 128.44 136.442 128.287 136.989 127.98C137.535 127.66 137.962 127.22 138.269 126.66C138.575 126.087 138.729 125.433 138.729 124.7C138.729 123.967 138.575 123.32 138.269 122.76C137.962 122.187 137.535 121.747 136.989 121.44C136.442 121.133 135.835 120.98 135.169 120.98C134.489 120.98 133.875 121.133 133.329 121.44C132.795 121.747 132.369 122.187 132.049 122.76C131.742 123.32 131.589 123.967 131.589 124.7C131.589 125.433 131.742 126.087 132.049 126.66C132.369 127.22 132.795 127.66 133.329 127.98C133.875 128.287 134.489 128.44 135.169 128.44ZM148.801 130.12C147.748 130.12 146.801 129.887 145.961 129.42C145.121 128.953 144.461 128.313 143.981 127.5C143.515 126.673 143.281 125.74 143.281 124.7C143.281 123.66 143.515 122.733 143.981 121.92C144.461 121.093 145.121 120.453 145.961 120C146.801 119.533 147.748 119.3 148.801 119.3C149.855 119.3 150.795 119.533 151.621 120C152.461 120.453 153.115 121.093 153.581 121.92C154.061 122.733 154.301 123.66 154.301 124.7C154.301 125.74 154.061 126.673 153.581 127.5C153.115 128.313 152.461 128.953 151.621 129.42C150.795 129.887 149.855 130.12 148.801 130.12ZM148.801 128.44C149.481 128.44 150.088 128.287 150.621 127.98C151.168 127.66 151.595 127.22 151.901 126.66C152.208 126.087 152.361 125.433 152.361 124.7C152.361 123.967 152.208 123.32 151.901 122.76C151.595 122.187 151.168 121.747 150.621 121.44C150.088 121.133 149.481 120.98 148.801 120.98C148.121 120.98 147.508 121.133 146.961 121.44C146.428 121.747 146.001 122.187 145.681 122.76C145.375 123.32 145.221 123.967 145.221 124.7C145.221 125.433 145.375 126.087 145.681 126.66C146.001 127.22 146.428 127.66 146.961 127.98C147.508 128.287 148.121 128.44 148.801 128.44ZM162.617 119.3C163.963 119.3 165.03 119.693 165.817 120.48C166.617 121.253 167.017 122.393 167.017 123.9V130H165.097V124.12C165.097 123.093 164.85 122.32 164.357 121.8C163.863 121.28 163.157 121.02 162.237 121.02C161.197 121.02 160.377 121.327 159.777 121.94C159.177 122.54 158.877 123.407 158.877 124.54V130H156.957V119.4H158.797V121C159.183 120.453 159.703 120.033 160.357 119.74C161.023 119.447 161.777 119.3 162.617 119.3ZM180.209 124.76C180.209 124.907 180.195 125.1 180.169 125.34H171.569C171.689 126.273 172.095 127.027 172.789 127.6C173.495 128.16 174.369 128.44 175.409 128.44C176.675 128.44 177.695 128.013 178.469 127.16L179.529 128.4C179.049 128.96 178.449 129.387 177.729 129.68C177.022 129.973 176.229 130.12 175.349 130.12C174.229 130.12 173.235 129.893 172.369 129.44C171.502 128.973 170.829 128.327 170.349 127.5C169.882 126.673 169.649 125.74 169.649 124.7C169.649 123.673 169.875 122.747 170.329 121.92C170.795 121.093 171.429 120.453 172.229 120C173.042 119.533 173.955 119.3 174.969 119.3C175.982 119.3 176.882 119.533 177.669 120C178.469 120.453 179.089 121.093 179.529 121.92C179.982 122.747 180.209 123.693 180.209 124.76ZM174.969 120.92C174.049 120.92 173.275 121.2 172.649 121.76C172.035 122.32 171.675 123.053 171.569 123.96H178.369C178.262 123.067 177.895 122.34 177.269 121.78C176.655 121.207 175.889 120.92 174.969 120.92ZM182.615 116H184.875L184.495 125.58H182.975L182.615 116ZM183.755 130.12C183.381 130.12 183.068 130 182.815 129.76C182.561 129.507 182.435 129.2 182.435 128.84C182.435 128.48 182.561 128.18 182.815 127.94C183.068 127.687 183.381 127.56 183.755 127.56C184.128 127.56 184.435 127.687 184.675 127.94C184.915 128.18 185.035 128.48 185.035 128.84C185.035 129.2 184.908 129.507 184.655 129.76C184.415 130 184.115 130.12 183.755 130.12Z" fill="#434553"/> -->
</g>
<defs>
<filter id="filter0_d_189_11287" x="-2" y="13" width="276" height="242" filterUnits="userSpaceOnUse" color-interpolation-filters="sRGB">
<feFlood flood-opacity="0" result="BackgroundImageFix"/>
<feColorMatrix in="SourceAlpha" type="matrix" values="0 0 0 0 0 0 0 0 0 0 0 0 0 0 0 0 0 0 127 0" result="hardAlpha"/>
<feOffset dy="4"/>
<feGaussianBlur stdDeviation="22"/>
<feComposite in2="hardAlpha" operator="out"/>
<feColorMatrix type="matrix" values="0 0 0 0 0.86809 0 0 0 0 0.898171 0 0 0 0 0.958333 0 0 0 1 0"/>
<feBlend mode="normal" in2="BackgroundImageFix" result="effect1_dropShadow_189_11287"/>
<feBlend mode="normal" in="SourceGraphic" in2="effect1_dropShadow_189_11287" result="shape"/>
</filter>
<linearGradient id="paint0_linear_189_11287" x1="161.797" y1="210.885" x2="91.5331" y2="32.8435" gradientUnits="userSpaceOnUse">
<stop stop-color="#B3DAFE"/>
<stop offset="1" stop-color="#EEF7FF" stop-opacity="0"/>
</linearGradient>
<clipPath id="clip0_189_11287">
<rect width="280" height="230" fill="white"/>
</clipPath>
</defs>
</svg>
